<?xml version="1.0" standalone="no"?>
<!DOCTYPE svg PUBLIC "-//W3C//DTD SVG 1.1//EN" "http://www.w3.org/Graphics/SVG/1.1/DTD/svg11.dtd" >
<svg>
<metadata>
Created by FontForge 20110222 at Fri Feb 13 09:49:17 2015
 By deploy user
Copyright (c) 2014 by (c) 2009 Designed by Svetoslav Simov (c) Fontfabric, Inc. All rights reserved.
</metadata>
<defs>
<font id="UniSansThinCAPS" horiz-adv-x="600" >
  <font-face 
    font-family="Uni Sans Thin CAPS"
    font-weight="250"
    font-variant="small-caps"
    font-stretch="normal"
    units-per-em="1000"
    panose-1="0 0 5 0 0 0 0 0 0 0"
    ascent="756"
    descent="-244"
    x-height="708"
    cap-height="708"
    bbox="3 -249 995 921"
    underline-thickness="50"
    underline-position="-50"
    unicode-range="U+0020-FB02"
  />
<missing-glyph horiz-adv-x="563" 
d="M512 708v-708h-466v708h466zM77 692l202 -329l202 329h-404zM270 350l-208 338v-667zM496 688l-208 -338l208 -329v667zM279 336l-202 -320h404z" />
    <glyph glyph-name="fi" unicode="fi" horiz-adv-x="740" 
d="M501 683h-383v-330h348v-25h-348v-328h-25v708h408v-25zM647 708v-708h-25v708h25z" />
    <glyph glyph-name="fl" unicode="fl" horiz-adv-x="1017" 
d="M501 683h-383v-330h348v-25h-348v-328h-25v708h408v-25zM995 0h-379v708h25v-683h354v-25z" />
    <glyph glyph-name=".notdef" horiz-adv-x="563" 
d="M512 708v-708h-466v708h466zM77 692l202 -329l202 329h-404zM270 350l-208 338v-667zM496 688l-208 -338l208 -329v667zM279 336l-202 -320h404z" />
    <glyph glyph-name=".null" horiz-adv-x="0" 
 />
    <glyph glyph-name="nonmarkingreturn" horiz-adv-x="333" 
 />
    <glyph glyph-name="space" unicode=" " horiz-adv-x="246" 
 />
    <glyph glyph-name="exclam" unicode="!" horiz-adv-x="194" 
d="M84 132v577h25v-577h-25zM66 30q0 13 9 22t22 9t22 -9t9 -22t-9 -22t-22 -9t-22 9t-9 22z" />
    <glyph glyph-name="quotedbl" unicode="&#x22;" horiz-adv-x="266" 
d="M103 708l-12 -176h-13v176h25zM195 708l-12 -176h-13v176h25z" />
    <glyph glyph-name="numbersign" unicode="#" horiz-adv-x="729" 
d="M457 259h185l-6 -20h-185l-72 -239h-24l73 239h-200l-72 -239h-24l73 239h-160l5 20h162l57 195h-184l6 21h185l69 234h23l-70 -234h201l68 234h25l-71 -234h163l-7 -21h-164zM291 454l-57 -195h201l57 195h-201z" />
    <glyph glyph-name="dollar" unicode="$" horiz-adv-x="585" 
d="M305 789v-71q147 -5 207 -109l-23 -9q-25 43 -75 67.5t-109 26.5v-322q38 -8 67 -16.5t60.5 -24.5t51.5 -36.5t33 -52t13 -70.5q0 -84 -67.5 -133.5t-157.5 -49.5v-84h-20v84q-68 0 -129 28.5t-98 84.5l23 10q32 -47 87.5 -73.5t116.5 -26.5v339q-47 10 -80 21.5
t-68.5 32.5t-54 55.5t-18.5 81.5q0 86 64.5 130t156.5 46v71h20zM89 542q0 -71 51.5 -108t144.5 -58v318q-80 -2 -138 -41.5t-58 -110.5zM502 172q0 41 -15 71.5t-45 50t-61 31.5t-76 22v-335q77 0 137 43t60 117z" />
    <glyph glyph-name="percent" unicode="%" horiz-adv-x="714" 
d="M614 731l-491 -779q-5 2 -11.5 7t-9.5 6l492 778zM324 525q0 -83 -38.5 -131.5t-99.5 -48.5q-66 0 -102 47t-36 135q0 85 38 132t100 47q65 0 101.5 -47.5t36.5 -133.5zM296 525q0 155 -111 155q-108 0 -108 -153q0 -82 26 -118.5t83 -36.5q110 0 110 153zM666 173
q0 -83 -38.5 -131.5t-99.5 -48.5q-66 0 -102 47t-36 135q0 85 38 132t100 47q65 0 101.5 -47.5t36.5 -133.5zM638 172q0 155 -112 155q-109 0 -109 -152q0 -82 26.5 -118.5t83.5 -36.5q111 0 111 152z" />
    <glyph glyph-name="ampersand" unicode="&#x26;" horiz-adv-x="609" 
d="M453 165l62 98l17 -9l-63 -103l110 -125h-29l-92 103q-49 -66 -99.5 -99.5t-115.5 -33.5q-83 0 -139 50t-56 132q0 121 165 218q-91 108 -91 171q0 64 46.5 103.5t111.5 39.5q56 0 98 -38t42 -94q0 -60 -39.5 -100.5t-107.5 -75.5l-23 -14zM277 688q-54 0 -92 -34
t-38 -85q0 -64 88 -164q77 39 119 77t42 92q0 50 -33.5 82t-85.5 32zM442 143l-214 239q-155 -90 -155 -202q0 -75 47.5 -119t130.5 -44q104 0 191 126z" />
    <glyph glyph-name="quotesingle" unicode="'" horiz-adv-x="178" 
d="M105 708l-8 -177h-19v177h27z" />
    <glyph glyph-name="parenleft" unicode="(" horiz-adv-x="246" 
d="M187 762l18 -14q-119 -174 -119 -407q0 -232 124 -410l-19 -11q-131 188 -131 423q0 229 127 419z" />
    <glyph glyph-name="parenright" unicode=")" horiz-adv-x="246" 
d="M61 -110l-21 13q119 182 119 409q0 231 -122 426l16 10l-1 -1q1 0 2 1q2 2 3 2q129 -190 129 -436q0 -242 -125 -424z" />
    <glyph glyph-name="asterisk" unicode="*" horiz-adv-x="442" 
d="M233 709l-2 -155q43 13 72.5 23.5t49 18t25.5 9.5l6 -20l-147 -46l95 -130l-16 -11l-94 130q-15 -22 -48.5 -67t-45.5 -63l-16 13l99 128q-28 8 -83 25.5t-69 21.5q1 3 2 10t2 10l152 -51q0 24 -1 76.5t-1 77.5h20z" />
    <glyph glyph-name="plus" unicode="+" horiz-adv-x="577" 
d="M281 352v226h22v-226h223v-23h-223v-227h-22v227h-231v23h231z" />
    <glyph glyph-name="comma" unicode="," horiz-adv-x="192" 
d="M119 41l-68 -162h-22l55 162h35z" />
    <glyph glyph-name="hyphen" unicode="-" horiz-adv-x="421" 
d="M345 312v-24h-269v24h269z" />
    <glyph glyph-name="period" unicode="." horiz-adv-x="214" 
d="M76 28q0 13 9 22t22 9t22 -9t9 -22t-9 -22t-22 -9t-22 9t-9 22z" />
    <glyph glyph-name="slash" unicode="/" horiz-adv-x="372" 
d="M323 723l18 -6q-81 -205 -145.5 -368.5t-94 -238.5t-49.5 -125q-19 5 -21 6z" />
    <glyph glyph-name="zero" unicode="0" horiz-adv-x="625" 
d="M313 -10q-94 0 -166.5 49.5t-72.5 139.5v350q0 62 37 106t89.5 63.5t112.5 19.5q59 0 111.5 -19.5t89.5 -63.5t37 -106v-350q0 -90 -72 -139.5t-166 -49.5zM99 529v-350q0 -83 64.5 -123.5t149.5 -40.5q53 0 99 15t80 53.5t34 95.5v350q0 57 -34 96t-80 53.5t-99 14.5
q-54 0 -100 -14.5t-80 -53.5t-34 -96z" />
    <glyph glyph-name="one" unicode="1" horiz-adv-x="291" 
d="M199 708v-708h-24v683l-139 -147l-16 14l145 158h34z" />
    <glyph glyph-name="two" unicode="2" horiz-adv-x="549" 
d="M271 693q-134 5 -190 -103l-22 10q56 117 213 118q94 -1 155.5 -54.5t61.5 -132.5q0 -82 -85 -170l-322 -336h408v-25h-435l-11 23l341 357q78 81 78 152q0 66 -53 112t-139 49z" />
    <glyph glyph-name="three" unicode="3" horiz-adv-x="568" 
d="M45 95l21 13q68 -94 202 -94q87 0 151 46t64 127q0 91 -51 138.5t-142 46.5h-68v24h68q72 0 116.5 38.5t44.5 111.5q0 72 -55.5 110.5t-130.5 38.5q-119 0 -171 -77l-20 10q58 90 193 90q85 0 146.5 -44.5t61.5 -127.5q0 -116 -99 -159q74 -27 103 -78t29 -123
q-1 -62 -36.5 -107.5t-89 -67t-114.5 -21.5q-152 0 -223 105z" />
    <glyph glyph-name="four" unicode="4" horiz-adv-x="572" 
d="M456 222h69v-23h-69v-199h-25v199h-384l-16 30l390 479h35v-486zM432 684l-376 -462h375z" />
    <glyph glyph-name="five" unicode="5" horiz-adv-x="574" 
d="M61 93l24 12q28 -42 81.5 -66t112.5 -24q216 0 216 235q0 83 -61 132.5t-148 49.5q-104 0 -195 -46l-11 -1v323h404v-23h-379v-267q92 40 182 38q94 -1 163.5 -54t70.5 -151q0 -262 -242 -262q-69 0 -127 26t-91 78z" />
    <glyph glyph-name="six" unicode="6" horiz-adv-x="618" 
d="M534 622l-23 -12q-52 84 -191 84q-92 0 -156.5 -43.5t-64.5 -122.5v-208q63 110 221 110q99 -1 170 -50.5t71 -138.5v-62q0 -89 -71.5 -139t-169.5 -50q-100 -1 -173 49.5t-73 139.5v350q0 89 73 139.5t173 49.5q153 0 214 -96zM536 180v60q0 79 -63 122.5t-153 43.5
q-92 0 -156.5 -43.5t-64.5 -122.5v-60q0 -79 64.5 -122.5t156.5 -43.5q90 0 153 43.5t63 122.5z" />
    <glyph glyph-name="seven" unicode="7" horiz-adv-x="493" 
d="M39 684v24h419l14 -24l-374 -684h-28l373 684h-404z" />
    <glyph glyph-name="eight" unicode="8" horiz-adv-x="614" 
d="M316 -10h-19q-95 0 -166 54.5t-72 146.5q0 148 142 191q-58 19 -83.5 64.5t-25.5 99.5q1 81 61 126.5t144 45.5h19q83 0 144 -45.5t61 -126.5q0 -124 -108 -163q141 -39 142 -192q-2 -92 -72.5 -146.5t-166.5 -54.5zM316 696h-19q-76 0 -129 -38.5t-53 -111.5
q0 -81 52.5 -117.5t129.5 -36.5h19q77 0 129.5 36.5t52.5 117.5q0 73 -53 111.5t-129 38.5zM297 13h19q83 0 148.5 47t65.5 132q0 180 -214 180h-19q-214 0 -214 -180q0 -85 65.5 -132t148.5 -47z" />
    <glyph glyph-name="nine" unicode="9" horiz-adv-x="618" 
d="M85 90l24 12q54 -88 189 -88q91 0 156 44.5t65 124.5v197q-42 -63 -96.5 -82.5t-124.5 -19.5q-99 1 -170 50.5t-71 138.5v62q0 89 71.5 139t169.5 50q100 1 172.5 -48.5t73.5 -140.5v-349q0 -90 -73.5 -140.5t-172.5 -49.5q-149 0 -213 100zM82 528v-60q0 -79 63 -122.5
t153 -43.5q92 0 157 43.5t65 122.5v60q0 79 -65 122.5t-157 43.5q-90 0 -153 -43.5t-63 -122.5z" />
    <glyph glyph-name="colon" unicode=":" horiz-adv-x="214" 
d="M76 435q0 13 9 22t22 9t22 -9t9 -22t-9 -22t-22 -9t-22 9t-9 22zM76 57q0 13 9 22t22 9t22 -9t9 -22t-9 -22t-22 -9t-22 9t-9 22z" />
    <glyph glyph-name="semicolon" unicode=";" horiz-adv-x="272" 
d="M109 420q0 13 9 22t22 9t22 -9t9 -22t-9 -22t-22 -9t-22 9t-9 22zM167 45l-60 -144h-25l44 144h41z" />
    <glyph glyph-name="less" unicode="&#x3c;" horiz-adv-x="442" 
d="M70 303l300 -175v-25q-55 32 -161 93.5t-161 93.5v26l322 190v-26z" />
    <glyph glyph-name="equal" unicode="=" horiz-adv-x="529" 
d="M451 382v-22h-373v22h373zM451 244v-22h-373v22h373z" />
    <glyph glyph-name="greater" unicode="&#x3e;" horiz-adv-x="445" 
d="M72 480v26q54 -33 162.5 -95t162.5 -95v-26l-325 -187v23l304 177q-40 23 -145 84.5t-159 92.5z" />
    <glyph glyph-name="question" unicode="?" horiz-adv-x="452" 
d="M49 630l-14 14q71 69 166 69q85 0 147 -50t61 -138q-1 -90 -61 -146.5t-145 -65.5l-6 -193h-18l-4 210q88 6 150 59.5t61 136.5q-1 78 -56 121t-131 43q-37 0 -78.5 -17t-71.5 -43zM188 51q11 0 19 -8t8 -19t-8 -18.5t-19 -7.5t-19 7.5t-8 18.5t8 19t19 8z" />
    <glyph glyph-name="at" unicode="@" horiz-adv-x="779" 
d="M590 474l-88 -262q-5 -14 -7 -20.5t-5 -20t-1.5 -20.5t4.5 -15t12 -11.5t22 -3.5q69 0 125 76t56 174q0 117 -87.5 189t-209.5 72q-144 0 -236.5 -95t-92.5 -236q0 -69 22 -127t59.5 -96.5t89 -62t110 -24t122.5 18.5l6 -19q-67 -19 -129.5 -19.5t-117 24.5t-95.5 65.5
t-64.5 103t-23.5 136.5q0 151 101 251.5t247 100.5q138 0 229.5 -78.5t91.5 -203.5q0 -120 -71 -198.5t-144 -73.5q-63 4 -45 82q-61 -85 -145 -85q-55 0 -85 37t-30 92q0 106 59.5 188.5t154.5 82.5q101 0 110 -106l5 -1l30 85h21zM230 227q0 -49 27.5 -80t72.5 -31
q56 0 103.5 52t70.5 122q11 42 13 85t-23 73.5t-74 27.5q-87 1 -138.5 -79.5t-51.5 -169.5z" />
    <glyph glyph-name="A" unicode="A" 
d="M139 253l-94 -253h-27l262 708h40l262 -708h-27l-94 253h-322zM302 684h-4l-150 -406h304z" />
    <glyph glyph-name="B" unicode="B" horiz-adv-x="627" 
d="M435 376l35 -12q54 -23 78 -71.5t23 -103.5q-4 -189 -220 -189h-258v708h259q81 0 133 -45.5t52 -126.5q0 -101 -71 -143zM118 387h234q73 0 117 37t44 111q0 72 -45 111t-116 39h-234v-298zM118 24h234q194 -3 194 166q0 175 -194 173h-234v-339z" />
    <glyph glyph-name="C" unicode="C" horiz-adv-x="584" 
d="M78 188v332q0 92 75 145t176 53q70 0 130 -26.5t90 -75.5l-22 -16q-27 44 -82.5 69t-118.5 25q-90 0 -156.5 -46t-66.5 -128v-332q0 -82 66.5 -127.5t156.5 -45.5q63 0 118 23t83 66l22 -11q-30 -49 -91.5 -76t-131.5 -27q-100 0 -174 52.5t-74 145.5z" />
    <glyph glyph-name="D" unicode="D" horiz-adv-x="641" 
d="M93 708h239q100 0 164 -47.5t64 -142.5v-329q0 -95 -64 -142t-164 -47h-239v708zM118 25h214q90 0 146.5 40.5t56.5 123.5v329q0 84 -56.5 124.5t-146.5 40.5h-214v-658z" />
    <glyph glyph-name="E" unicode="E" horiz-adv-x="565" 
d="M118 683v-317h366v-27h-366v-314h396v-25h-421v708h421v-25h-396z" />
    <glyph glyph-name="F" unicode="F" horiz-adv-x="537" 
d="M501 683h-383v-330h348v-25h-348v-328h-25v708h408v-25z" />
    <glyph glyph-name="G" unicode="G" horiz-adv-x="634" 
d="M78 191v329q0 92 74 145t174 53q69 0 128.5 -27t90.5 -76l-23 -15q-26 46 -79.5 69.5t-118.5 23.5q-90 0 -155.5 -45.5t-65.5 -127.5v-329q0 -84 66 -130.5t157 -46.5q90 0 157 47t67 130v134h-217v24h242v-158q0 -95 -74 -148t-175 -53t-174.5 53t-73.5 148z" />
    <glyph glyph-name="H" unicode="H" horiz-adv-x="683" 
d="M118 341v-341h-25v708h25v-342h447v342h25v-708h-25v341h-447z" />
    <glyph glyph-name="I" unicode="I" horiz-adv-x="211" 
d="M118 708v-708h-25v708h25z" />
    <glyph glyph-name="J" unicode="J" horiz-adv-x="577" 
d="M228 685v23h261v-521q0 -92 -71 -144.5t-167 -52.5q-77 0 -140 37.5t-84 105.5l25 8q21 -63 78 -95t122 -32q85 0 148.5 45.5t63.5 127.5v498h-236z" />
    <glyph glyph-name="K" unicode="K" horiz-adv-x="591" 
d="M118 708v-430l419 430h32l-327 -341l327 -367h-29l-316 349l-106 -106v-243h-25v708h25z" />
    <glyph glyph-name="L" unicode="L" horiz-adv-x="493" 
d="M472 0h-379v708h25v-683h354v-25z" />
    <glyph glyph-name="M" unicode="M" horiz-adv-x="797" 
d="M382 112l-255 571l-9 -1v-682h-25v708h53l253 -573l252 573h53v-708h-25v690h-9l-254 -578h-34z" />
    <glyph glyph-name="N" unicode="N" horiz-adv-x="671" 
d="M132 708l421 -684v684h25v-708h-43l-415 676l-1 -676h-26v708h39z" />
    <glyph glyph-name="O" unicode="O" horiz-adv-x="682" 
d="M77 191v327q0 94 78 147t185 53t185.5 -53t78.5 -147v-327q0 -94 -78.5 -147.5t-185.5 -53.5t-185 53.5t-78 147.5zM102 518v-327q0 -84 70.5 -130t167.5 -46t168 46.5t71 129.5v327q0 87 -70.5 131.5t-169.5 44.5q-98 -1 -167.5 -45.5t-69.5 -130.5z" />
    <glyph glyph-name="P" unicode="P" horiz-adv-x="602" 
d="M118 0h-25v708h250q102 -1 159.5 -65.5t57.5 -149.5q0 -84 -57 -147t-159 -64h-226v-282zM118 307h225q92 0 142 55.5t50 131.5t-51 133t-141 58h-225v-378z" />
    <glyph glyph-name="Q" unicode="Q" horiz-adv-x="682" 
d="M581 -17l-52 61q-80 -54 -188 -54q-107 0 -185 53.5t-78 147.5v327q0 94 78 147t185 53q106 0 184.5 -53t78.5 -147v-327q0 -44 -13.5 -72.5t-43.5 -59.5l53 -63zM472 156l59 -77q48 39 48 112v327q0 84 -70.5 130t-167.5 46q-98 -1 -168 -45.5t-70 -130.5v-327
q0 -82 71 -129.5t167 -47.5t174 50l-62 78z" />
    <glyph glyph-name="R" unicode="R" horiz-adv-x="611" 
d="M545 0h-29l-238 316h-161v-316h-24v708h250q216 0 220 -192q0 -200 -219 -200h-38zM117 338h227q98 0 146.5 42.5t48.5 134.5q0 173 -195 170h-227v-347z" />
    <glyph glyph-name="S" unicode="S" horiz-adv-x="578" 
d="M86 546q-4 -50 26 -86t74 -54.5t108 -31.5q50 -10 88 -23.5t74.5 -37t55 -61t14.5 -87.5q-6 -81 -75.5 -128t-162.5 -47q-70 0 -132.5 28.5t-100.5 85.5l23 10q34 -48 91 -74t121 -26q80 0 139.5 38.5t69.5 112.5q3 45 -12.5 78t-49.5 53.5t-67 31.5t-82 22
q-48 10 -82.5 22t-71.5 33.5t-56 57t-17 83.5q3 83 69.5 127.5t158.5 44.5q158 0 220 -109l-23 -9q-27 46 -80.5 70t-116.5 24q-82 0 -140 -36.5t-63 -111.5z" />
    <glyph glyph-name="T" unicode="T" horiz-adv-x="541" 
d="M519 708v-25h-236v-683h-25v683h-236v25h497z" />
    <glyph glyph-name="U" unicode="U" horiz-adv-x="673" 
d="M113 708v-514q0 -85 66 -132.5t157 -47.5q90 0 157 47.5t67 132.5v514h25v-514q0 -96 -74 -150t-175 -54q-100 0 -174 54t-74 150v514h25z" />
    <glyph glyph-name="V" unicode="V" horiz-adv-x="602" 
d="M554 709h28l-260 -709h-40l-266 708h29l255 -679h5z" />
    <glyph glyph-name="W" unicode="W" horiz-adv-x="927" 
d="M874 708h27l-207 -708h-41l-189 578l-190 -578h-39l-210 708h27l201 -673h5l189 567h33l190 -569h6z" />
    <glyph glyph-name="X" unicode="X" horiz-adv-x="547" 
d="M288 353l232 -353h-29l-217 336l-217 -336h-31l233 353l-232 355h28l219 -332l218 332h29z" />
    <glyph glyph-name="Y" unicode="Y" horiz-adv-x="550" 
d="M286 281v-281h-25v281l-242 427h30l225 -399l232 399h31z" />
    <glyph glyph-name="Z" unicode="Z" horiz-adv-x="549" 
d="M49 686v22h460l9 -13l-455 -673h441v-22h-465l-10 12l455 674h-435z" />
    <glyph glyph-name="bracketleft" unicode="[" horiz-adv-x="237" 
d="M103 730v-828h92v-22h-116v871h116v-21h-92z" />
    <glyph glyph-name="backslash" unicode="\" horiz-adv-x="385" 
d="M335 -29l-306 770l19 7l309 -770z" />
    <glyph glyph-name="bracketright" unicode="]" horiz-adv-x="238" 
d="M133 -101v828h-90v24h116v-877h-116v25h90z" />
    <glyph glyph-name="asciicircum" unicode="^" horiz-adv-x="509" 
d="M237 708h28q106 -156 182 -256h-27l-169 239l-163 -239h-27z" />
    <glyph glyph-name="underscore" unicode="_" horiz-adv-x="589" 
d="M527 -21v-22h-466v22h466z" />
    <glyph glyph-name="grave" unicode="`" horiz-adv-x="210" 
d="M94 759l-72 103h35l62 -103h-25z" />
    <glyph glyph-name="a" unicode="a" 
d="M139 253l-94 -253h-27l262 708h40l262 -708h-27l-94 253h-322zM302 684h-4l-150 -406h304z" />
    <glyph glyph-name="b" unicode="b" horiz-adv-x="627" 
d="M435 376l35 -12q54 -23 78 -71.5t23 -103.5q-4 -189 -220 -189h-258v708h259q81 0 133 -45.5t52 -126.5q0 -101 -71 -143zM118 387h234q73 0 117 37t44 111q0 72 -45 111t-116 39h-234v-298zM118 24h234q194 -3 194 166q0 175 -194 173h-234v-339z" />
    <glyph glyph-name="c" unicode="c" horiz-adv-x="584" 
d="M78 188v332q0 92 75 145t176 53q70 0 130 -26.5t90 -75.5l-22 -16q-27 44 -82.5 69t-118.5 25q-90 0 -156.5 -46t-66.5 -128v-332q0 -82 66.5 -127.5t156.5 -45.5q63 0 118 23t83 66l22 -11q-30 -49 -91.5 -76t-131.5 -27q-100 0 -174 52.5t-74 145.5z" />
    <glyph glyph-name="d" unicode="d" horiz-adv-x="641" 
d="M93 708h239q100 0 164 -47.5t64 -142.5v-329q0 -95 -64 -142t-164 -47h-239v708zM118 25h214q90 0 146.5 40.5t56.5 123.5v329q0 84 -56.5 124.5t-146.5 40.5h-214v-658z" />
    <glyph glyph-name="e" unicode="e" horiz-adv-x="565" 
d="M118 683v-317h366v-27h-366v-314h396v-25h-421v708h421v-25h-396z" />
    <glyph glyph-name="f" unicode="f" horiz-adv-x="537" 
d="M501 683h-383v-330h348v-25h-348v-328h-25v708h408v-25z" />
    <glyph glyph-name="g" unicode="g" horiz-adv-x="634" 
d="M78 191v329q0 92 74 145t174 53q69 0 128.5 -27t90.5 -76l-23 -15q-26 46 -79.5 69.5t-118.5 23.5q-90 0 -155.5 -45.5t-65.5 -127.5v-329q0 -84 66 -130.5t157 -46.5q90 0 157 47t67 130v134h-217v24h242v-158q0 -95 -74 -148t-175 -53t-174.5 53t-73.5 148z" />
    <glyph glyph-name="h" unicode="h" horiz-adv-x="683" 
d="M118 341v-341h-25v708h25v-342h447v342h25v-708h-25v341h-447z" />
    <glyph glyph-name="i" unicode="i" horiz-adv-x="211" 
d="M118 708v-708h-25v708h25z" />
    <glyph glyph-name="j" unicode="j" horiz-adv-x="577" 
d="M228 685v23h261v-521q0 -92 -71 -144.5t-167 -52.5q-77 0 -140 37.5t-84 105.5l25 8q21 -63 78 -95t122 -32q85 0 148.5 45.5t63.5 127.5v498h-236z" />
    <glyph glyph-name="k" unicode="k" horiz-adv-x="591" 
d="M118 708v-430l419 430h32l-327 -341l327 -367h-29l-316 349l-106 -106v-243h-25v708h25z" />
    <glyph glyph-name="l" unicode="l" horiz-adv-x="492" 
d="M471 0h-379v708h25v-683h354v-25z" />
    <glyph glyph-name="m" unicode="m" horiz-adv-x="797" 
d="M382 112l-255 571l-9 -1v-682h-25v708h53l253 -573l252 573h53v-708h-25v690h-9l-254 -578h-34z" />
    <glyph glyph-name="n" unicode="n" horiz-adv-x="671" 
d="M132 708l421 -684v684h25v-708h-43l-415 676l-1 -676h-26v708h39z" />
    <glyph glyph-name="o" unicode="o" horiz-adv-x="682" 
d="M77 191v327q0 94 78 147t185 53t185.5 -53t78.5 -147v-327q0 -94 -78.5 -147.5t-185.5 -53.5t-185 53.5t-78 147.5zM102 518v-327q0 -84 70.5 -130t167.5 -46t168 46.5t71 129.5v327q0 87 -70.5 131.5t-169.5 44.5q-98 -1 -167.5 -45.5t-69.5 -130.5z" />
    <glyph glyph-name="p" unicode="p" horiz-adv-x="602" 
d="M118 0h-25v708h250q102 -1 159.5 -65.5t57.5 -149.5q0 -84 -57 -147t-159 -64h-226v-282zM118 307h225q92 0 142 55.5t50 131.5t-51 133t-141 58h-225v-378z" />
    <glyph glyph-name="q" unicode="q" horiz-adv-x="682" 
d="M581 -17l-52 61q-80 -54 -188 -54q-107 0 -185 53.5t-78 147.5v327q0 94 78 147t185 53q106 0 184.5 -53t78.5 -147v-327q0 -44 -13.5 -72.5t-43.5 -59.5l53 -63zM472 156l59 -77q48 39 48 112v327q0 84 -70.5 130t-167.5 46q-98 -1 -168 -45.5t-70 -130.5v-327
q0 -82 71 -129.5t167 -47.5t174 50l-62 78z" />
    <glyph glyph-name="r" unicode="r" horiz-adv-x="611" 
d="M545 0h-29l-238 316h-161v-316h-24v708h250q216 0 220 -192q0 -200 -219 -200h-38zM117 338h227q98 0 146.5 42.5t48.5 134.5q0 173 -195 170h-227v-347z" />
    <glyph glyph-name="s" unicode="s" horiz-adv-x="578" 
d="M86 546q-4 -50 26 -86t74 -54.5t108 -31.5q50 -10 88 -23.5t74.5 -37t55 -61t14.5 -87.5q-6 -81 -75.5 -128t-162.5 -47q-70 0 -132.5 28.5t-100.5 85.5l23 10q34 -48 91 -74t121 -26q80 0 139.5 38.5t69.5 112.5q3 45 -12.5 78t-49.5 53.5t-67 31.5t-82 22
q-48 10 -82.5 22t-71.5 33.5t-56 57t-17 83.5q3 83 69.5 127.5t158.5 44.5q158 0 220 -109l-23 -9q-27 46 -80.5 70t-116.5 24q-82 0 -140 -36.5t-63 -111.5z" />
    <glyph glyph-name="t" unicode="t" horiz-adv-x="541" 
d="M519 708v-25h-236v-683h-25v683h-236v25h497z" />
    <glyph glyph-name="u" unicode="u" horiz-adv-x="673" 
d="M113 708v-514q0 -85 66 -132.5t157 -47.5q90 0 157 47.5t67 132.5v514h25v-514q0 -96 -74 -150t-175 -54q-100 0 -174 54t-74 150v514h25z" />
    <glyph glyph-name="v" unicode="v" horiz-adv-x="602" 
d="M554 709h28l-260 -709h-40l-266 708h29l255 -679h5z" />
    <glyph glyph-name="w" unicode="w" horiz-adv-x="927" 
d="M874 708h27l-207 -708h-41l-189 578l-190 -578h-39l-210 708h27l201 -673h5l189 567h33l190 -569h6z" />
    <glyph glyph-name="x" unicode="x" horiz-adv-x="547" 
d="M288 353l232 -353h-29l-217 336l-217 -336h-31l233 353l-232 355h28l219 -332l218 332h29z" />
    <glyph glyph-name="y" unicode="y" horiz-adv-x="550" 
d="M286 281v-281h-25v281l-242 427h30l225 -399l232 399h31z" />
    <glyph glyph-name="z" unicode="z" horiz-adv-x="549" 
d="M49 686v22h460l9 -13l-455 -673h441v-22h-465l-10 12l455 674h-435z" />
    <glyph glyph-name="braceleft" unicode="{" horiz-adv-x="263" 
d="M220 727h-22q-40 0 -49 -19.5t-9 -73.5v-146q1 -76 -19 -121t-45 -55q63 -27 63 -174v-147q0 -45 13 -65t52 -20h16v-21h-17q-49 0 -68 26.5t-19 78.5v145q0 150 -70 168v18q71 18 71 169v145q0 58 14.5 85.5t65.5 27.5h23v-21z" />
    <glyph glyph-name="bar" unicode="|" horiz-adv-x="180" 
d="M101 -161h-22v908h22v-908z" />
    <glyph glyph-name="braceright" unicode="}" horiz-adv-x="263" 
d="M43 747h23q48 0 64 -27.5t16 -84.5v-145q0 -151 71 -169v-18q-70 -18 -70 -168v-144q0 -106 -87 -106h-17v21h15q39 0 52.5 22t13.5 63v145q0 134 64 179q-25 10 -45 55t-19 120v144q0 22 -0.5 32.5t-3.5 24.5t-9 20.5t-17.5 11t-28.5 4.5h-22v20z" />
    <glyph glyph-name="asciitilde" unicode="~" horiz-adv-x="530" 
d="M443 339l10 -12q-16 -31 -42.5 -51t-59.5 -20q-32 0 -87.5 35t-80.5 35q-53 0 -93 -56q-2 2 -6 7t-5 6q38 65 105 65q32 0 84.5 -35t82.5 -35q51 0 92 61z" />
    <glyph glyph-name="uni00A0" unicode="&#xa0;" horiz-adv-x="246" 
 />
    <glyph glyph-name="exclamdown" unicode="&#xa1;" horiz-adv-x="189" 
d="M126 490q0 -13 -9 -22t-22 -9t-22 9t-9 22t9 22t22 9t22 -9t9 -22zM108 367v-572h-27v572h27z" />
    <glyph glyph-name="cent" unicode="&#xa2;" horiz-adv-x="464" 
d="M401 461l-16 -12q-20 26 -54.5 42.5t-72.5 15.5v-495q42 2 82 22.5t54 51.5l19 -9q-19 -38 -60 -60t-95 -27v-84h-21v84q-71 8 -119.5 47.5t-48.5 104.5v235q0 66 49.5 107t118.5 44v85h21v-85q96 -6 143 -67zM237 13v493q-60 -2 -103.5 -36.5t-42.5 -91.5v-236
q0 -54 41.5 -87t104.5 -42z" />
    <glyph glyph-name="sterling" unicode="&#xa3;" horiz-adv-x="495" 
d="M157 21v341h-104v20h104v148q0 34 9 65t29 59.5t57 46t88 17.5q64 0 112 -38l-15 -17q-42 34 -99 34q-78 0 -118 -49.5t-40 -114.5v-151h165v-20h-165v-341h245v-21h-372v21h104z" />
    <glyph glyph-name="currency" unicode="&#xa4;" horiz-adv-x="618" 
d="M85 141l54 54q-62 68 -62 159t60 157l-52 52l13 16l52 -55q77 61 159 61q87 0 156 -59l51 53l15 -12l-54 -56q64 -70 64 -157q0 -88 -62 -156l57 -55l-15 -14l-55 54q-80 -63 -157 -63q-79 0 -158 61l-52 -53zM97 353q0 -88 62 -149.5t148 -61.5q87 0 149.5 61.5
t62.5 149.5q0 89 -62.5 151t-149.5 62q-86 0 -148 -62t-62 -151z" />
    <glyph glyph-name="yen" unicode="&#xa5;" horiz-adv-x="560" 
d="M303 292h153l-5 -23h-162v-74h167l-4 -22h-163v-173h-23v173h-165l3 22h162v74h-163l4 23h146l-224 416h29l220 -410l226 410h29z" />
    <glyph glyph-name="brokenbar" unicode="&#xa6;" horiz-adv-x="192" 
d="M108 373h-24v333h24v-333zM108 -127h-24v346h24v-346z" />
    <glyph glyph-name="section" unicode="&#xa7;" horiz-adv-x="468" 
d="M55 -32l23 10q23 -43 63.5 -63t82.5 -21q60 -1 101 26t41 93q0 22 -10 42t-23 34t-36 28.5t-40 22.5t-45 21t-40 19q-50 27 -78.5 57.5t-28.5 75.5q0 79 120 132q-48 29 -72 58t-24 66q0 65 49.5 104t116.5 39q42 0 82.5 -17.5t58.5 -54.5l-20 -11q-34 60 -121 60
q-55 0 -98.5 -33.5t-43.5 -86.5q0 -17 4.5 -31.5t17.5 -27.5l21 -21t31.5 -20t31 -16t36.5 -17q34 -16 56 -28t48 -32t39 -45t13 -55q0 -39 -29 -75t-73 -61q41 -24 63.5 -57t22.5 -63q0 -78 -49 -113.5t-122 -35.5q-53 0 -100.5 25.5t-68.5 71.5zM175 206l112 -55
q38 20 68.5 53t30.5 69q0 38 -27.5 69t-62.5 50l-82 40q-49 -17 -86.5 -46.5t-37.5 -72.5q0 -27 16.5 -50.5t30.5 -33.5t38 -23z" />
    <glyph glyph-name="dieresis" unicode="&#xa8;" horiz-adv-x="300" 
d="M28 809q0 10 7 17t17 7t17 -7t7 -17t-7 -17t-17 -7t-17 7t-7 17zM208 809q0 10 7 17t17 7t17 -7t7 -17t-7 -17t-17 -7t-17 7t-7 17z" />
    <glyph glyph-name="copyright" unicode="&#xa9;" horiz-adv-x="830" 
d="M60 354q0 146 104.5 250.5t250.5 104.5t250.5 -104.5t104.5 -250.5t-104.5 -250.5t-250.5 -104.5t-250.5 104.5t-104.5 250.5zM83 354q0 -139 96.5 -235.5t235.5 -96.5t235.5 96.5t96.5 235.5t-96.5 235.5t-235.5 96.5t-235.5 -96.5t-96.5 -235.5zM568 514l-17 -11
q-41 56 -136 56q-65 0 -111 -33t-46 -94v-153q0 -63 46 -96t111 -33q47 0 87 19t58 55q6 -2 11.5 -5t9.5 -5q-22 -41 -67.5 -63.5t-98.5 -22.5q-73 0 -126 40t-53 111v151q0 71 53 111t126 40q105 0 153 -67z" />
    <glyph glyph-name="ordfeminine" unicode="&#xaa;" horiz-adv-x="372" 
d="M275 562v51q0 37 -28 55.5t-69 18.5q-45 0 -84 -31l-15 13q45 39 101 39q47 0 81.5 -24.5t34.5 -69.5v-223q-67 -20 -129 -19q-46 1 -77 31.5t-31 78.5q1 98 123 98q49 0 93 -18zM275 403v140q-52 18 -95 18q-99 0 -100 -79q0 -40 25.5 -64.5t63.5 -25.5q51 0 106 11z
" />
    <glyph glyph-name="guillemotleft" unicode="&#xab;" horiz-adv-x="376" 
d="M46 295l122 181q12 -8 15 -11q2 -2 3 -2l-114 -168q29 -43 63.5 -95.5t48.5 -72.5l-16 -11zM170 295l122 181q12 -8 15 -11q2 -2 3 -2l-116 -168q46 -68 115 -168l-17 -11z" />
    <glyph glyph-name="logicalnot" unicode="&#xac;" horiz-adv-x="604" 
d="M78 361v21h443v-195h-21v174h-422z" />
    <glyph glyph-name="uni00AD" unicode="&#xad;" horiz-adv-x="353" 
d="M307 281v-23h-228v23h228z" />
    <glyph glyph-name="registered" unicode="&#xae;" horiz-adv-x="830" 
d="M60 354q0 146 104.5 250.5t250.5 104.5t250.5 -104.5t104.5 -250.5t-104.5 -250.5t-250.5 -104.5t-250.5 104.5t-104.5 250.5zM84 354q0 -138 96.5 -234.5t234.5 -96.5t234.5 96.5t96.5 234.5t-96.5 234.5t-234.5 96.5t-234.5 -96.5t-96.5 -234.5zM295 158v398h136
q62 0 96.5 -31.5t34.5 -79.5q0 -50 -34 -80.5t-86 -34.5l123 -172h-22l-125 170h-103v-170h-20zM315 346h86q62 0 101 20.5t39 78.5q0 46 -33.5 69t-79.5 23h-113v-191z" />
    <glyph glyph-name="macron" unicode="&#xaf;" horiz-adv-x="275" 
d="M44 786v21h197v-21h-197z" />
    <glyph glyph-name="degree" unicode="&#xb0;" horiz-adv-x="324" 
d="M162 509q-42 0 -72 30t-30 73q0 42 30 71.5t72 29.5t72 -29.5t30 -71.5q0 -43 -30 -73t-72 -30zM162 528q34 0 57.5 24t23.5 59t-23.5 59t-57.5 24t-57.5 -24t-23.5 -59t23.5 -59t57.5 -24z" />
    <glyph glyph-name="plusminus" unicode="&#xb1;" horiz-adv-x="574" 
d="M273 419v179h21v-179h195v-21h-195v-182h-21v182h-188v21h188zM487 132v-20h-401v20h401z" />
    <glyph glyph-name="twosuperior" unicode="&#xb2;" horiz-adv-x="404" 
d="M329 320v-19h-258l-6 16l196 205q58 60 42 110q-31 67 -108 67q-68 0 -103 -50l-16 8q40 61 119 61q42 0 76.5 -19.5t49.5 -56.5l-1 1q24 -63 -44 -133l-181 -190h234z" />
    <glyph glyph-name="threesuperior" unicode="&#xb3;" horiz-adv-x="388" 
d="M261 517q35 -11 51 -39.5t16 -62.5q0 -55 -45 -86t-102 -28q-37 2 -70 19.5t-49 47.5l19 7q30 -51 102 -55q45 -3 85 23t40 72q0 49 -29.5 71.5t-75.5 20.5h-33v17h33q47 0 69 21q21 21 20.5 60t-19.5 61q-31 34 -83 34q-67 0 -100 -45l-14 10q37 48 103 52.5t108 -38.5
q24 -24 24.5 -71.5t-24.5 -73.5q-6 -6 -26 -17z" />
    <glyph glyph-name="acute" unicode="&#xb4;" horiz-adv-x="590" 
d="M345 862h35l-72 -103h-25z" />
    <glyph glyph-name="mu" unicode="&#xb5;" horiz-adv-x="515" 
d="M417 0v137q-19 -71 -69 -104t-111 -33q-111 0 -138 96l1 -307h-22v729h23v-328q0 -42 10.5 -78t42.5 -64.5t83 -28.5q77 0 126 55.5t49 156.5v287h24l3 -518h-22z" />
    <glyph glyph-name="paragraph" unicode="&#xb6;" horiz-adv-x="557" 
d="M268 -113v409q-108 0 -170 60t-62 141q0 85 60 148.5t167 63.5h212v-822h-21v804h-164v-804h-22z" />
    <glyph glyph-name="periodcentered" unicode="&#xb7;" horiz-adv-x="230" 
d="M76 318q0 16 11.5 27.5t27.5 11.5t27.5 -11.5t11.5 -27.5t-11.5 -27.5t-27.5 -11.5t-27.5 11.5t-11.5 27.5z" />
    <glyph glyph-name="cedilla" unicode="&#xb8;" horiz-adv-x="571" 
d="M309 10l-44 -78q40 0 59 -21t13 -53q-5 -27 -31 -45.5t-66 -16.5q-30 1 -65 19l3 18q34 -18 62 -19q35 -1 54 13t23 36q5 27 -16.5 42.5t-62.5 10.5l52 94h19z" />
    <glyph glyph-name="onesuperior" unicode="&#xb9;" horiz-adv-x="235" 
d="M57 597l-15 13l86 98h27v-408h-21v387z" />
    <glyph glyph-name="ordmasculine" unicode="&#xba;" horiz-adv-x="406" 
d="M203 365q-55 0 -95.5 28.5t-40.5 79.5v128q0 51 40.5 79.5t95.5 28.5t95.5 -28.5t40.5 -79.5v-128q0 -51 -40.5 -79.5t-95.5 -28.5zM87 598v-122q0 -47 34.5 -69.5t81.5 -22.5t81.5 22.5t34.5 69.5v122q0 47 -34.5 69.5t-81.5 22.5t-81.5 -22.5t-34.5 -69.5z" />
    <glyph glyph-name="guillemotright" unicode="&#xbb;" horiz-adv-x="375" 
d="M206 295l-122 -181q-12 8 -15 11q-2 2 -3 2l116 168q-99 144 -115 168l17 11zM206 114l-18 13l116 168q-99 144 -115 168l17 11l122 -179z" />
    <glyph glyph-name="onequarter" unicode="&#xbc;" horiz-adv-x="646" 
d="M511 714l9 -6l-440 -719l-15 9l439 720zM57 597l-15 13l86 98h27v-408h-21v387zM603 123v-17h-40v-106h-19v106h-223l-12 18l229 289h25v-290h40zM544 390l-214 -268l214 1v267z" />
    <glyph glyph-name="onehalf" unicode="&#xbd;" horiz-adv-x="693" 
d="M521 714l9 -6l-440 -719l-15 9l439 720zM54 597l-15 13l86 98h27v-408h-21v387zM642 19v-19h-258l-1 2l-5 14l196 200q59 59 42 110q-31 67 -108 67q-66 0 -101 -50l-16 6h1l-3 2q40 61 119 61q42 0 76.5 -19.5t49.5 -56.5l-1 1q14 -37 0 -72.5t-44 -60.5l-181 -185h234z
" />
    <glyph glyph-name="threequarters" unicode="&#xbe;" horiz-adv-x="709" 
d="M616 708l-439 -718l-14 9l438 719zM248 523q35 -11 51 -39.5t16 -62.5q0 -55 -45 -86t-102 -28q-37 2 -70 19.5t-49 47.5l19 7q30 -51 102 -55q45 -3 85 23t40 72q0 49 -29.5 71.5t-75.5 20.5h-33v17h33q47 0 69 21q21 21 20.5 52t-19.5 53q-31 34 -83 34q-67 0 -100 -45
q-8 4 -14 10q37 48 103 52.5t108 -38.5q24 -24 24.5 -63.5t-24.5 -65.5q-6 -6 -26 -17zM662 123v-17h-40v-106h-19v106h-223l-12 18l229 289h25v-290h40zM603 390l-214 -268l214 1v267z" />
    <glyph glyph-name="questiondown" unicode="&#xbf;" horiz-adv-x="446" 
d="M261 454q-12 0 -20.5 9t-8.5 22t8.5 21.5t20.5 8.5q13 0 22 -8.5t9 -21.5t-9 -22t-22 -9zM401 -102l15 -15q-71 -69 -166 -69q-85 0 -147.5 50t-61.5 138q1 90 58 142t148 61q2 54 3 93.5t1.5 63.5t0.5 35h18l6 -210q-88 -6 -150 -56t-61 -130q1 -78 56 -120t131 -42
q79 0 149 59z" />
    <glyph glyph-name="Agrave" unicode="&#xc0;" 
d="M294 759l-72 103h35l62 -103h-25zM139 253l-94 -253h-27l262 708h40l262 -708h-27l-94 253h-322zM302 684h-4l-150 -406h304z" />
    <glyph glyph-name="Aacute" unicode="&#xc1;" 
d="M338 862h35l-72 -103h-25zM139 253l-94 -253h-27l262 708h40l262 -708h-27l-94 253h-322zM302 684h-4l-150 -406h304z" />
    <glyph glyph-name="Acircumflex" unicode="&#xc2;" 
d="M400 755h-28l-72 79l-71 -79h-29l86 94h28zM139 253l-94 -253h-27l262 708h40l262 -708h-27l-94 253h-322zM302 684h-4l-150 -406h304z" />
    <glyph glyph-name="Atilde" unicode="&#xc3;" 
d="M211 788l-15 6q19 49 60 49q21 0 53 -24t46 -24q26 0 39 32l16 -6q-16 -48 -55 -48q-20 0 -51.5 24.5t-48.5 24.5q-29 0 -44 -34zM139 253l-94 -253h-27l262 708h40l262 -708h-27l-94 253h-322zM302 684h-4l-150 -406h304z" />
    <glyph glyph-name="Adieresis" unicode="&#xc4;" 
d="M183 809q0 10 7 17t17 7t17 -7t7 -17t-7 -17t-17 -7t-17 7t-7 17zM363 809q0 10 7 17t17 7t17 -7t7 -17t-7 -17t-17 -7t-17 7t-7 17zM139 253l-94 -253h-27l262 708h40l262 -708h-27l-94 253h-322zM302 684h-4l-150 -406h304z" />
    <glyph glyph-name="Aring" unicode="&#xc5;" 
d="M582 0h-27l-94 253h-322l-94 -253h-27l257 693q-23 8 -37.5 27.5t-14.5 46.5q0 37 22.5 57.5t55.5 20.5t54 -23.5t21 -55.5q0 -24 -14 -44.5t-37 -28.5zM246 766q0 -23 16 -39.5t38 -16.5q23 0 39 17t16 40t-16 40t-39 17q-24 0 -39 -15.5t-15 -42.5zM452 278l-150 406
h-4l-150 -406h304z" />
    <glyph glyph-name="AE" unicode="&#xc6;" horiz-adv-x="771" 
d="M720 708v-24h-304v-328h273v-24h-273v-310h304v-22h-327v253h-231l-128 -253h-28l351 708h363zM373 686l-200 -410h220v411z" />
    <glyph glyph-name="Ccedilla" unicode="&#xc7;" horiz-adv-x="584" 
d="M326 15q63 0 118 23t83 66l22 -11q-28 -44 -81 -70.5t-116 -31.5l-34 -60q40 0 59 -21t13 -53q-5 -27 -31 -45.5t-66 -16.5q-30 1 -65 19l3 18q34 -18 62 -19q35 -1 54 13t23 36q5 27 -16.5 42.5t-62.5 10.5l42 75h-7q-100 0 -174 52.5t-74 145.5v332q0 92 75 145t176 53
q70 0 130 -26.5t90 -75.5l-22 -16q-27 44 -82.5 69t-118.5 25q-90 0 -156.5 -46t-66.5 -128v-332q0 -82 66.5 -127.5t156.5 -45.5z" />
    <glyph glyph-name="Egrave" unicode="&#xc8;" horiz-adv-x="565" 
d="M301 759l-72 103h35l62 -103h-25zM118 683v-317h366v-27h-366v-314h396v-25h-421v708h421v-25h-396z" />
    <glyph glyph-name="Eacute" unicode="&#xc9;" horiz-adv-x="565" 
d="M345 862h35l-72 -103h-25zM118 683v-317h366v-27h-366v-314h396v-25h-421v708h421v-25h-396z" />
    <glyph glyph-name="Ecircumflex" unicode="&#xca;" horiz-adv-x="565" 
d="M407 755h-28l-72 79l-71 -79h-29l86 94h28zM118 683v-317h366v-27h-366v-314h396v-25h-421v708h421v-25h-396z" />
    <glyph glyph-name="Edieresis" unicode="&#xcb;" horiz-adv-x="565" 
d="M190 809q0 10 7 17t17 7t17 -7t7 -17t-7 -17t-17 -7t-17 7t-7 17zM370 809q0 10 7 17t17 7t17 -7t7 -17t-7 -17t-17 -7t-17 7t-7 17zM118 683v-317h366v-27h-366v-314h396v-25h-421v708h421v-25h-396z" />
    <glyph glyph-name="Igrave" unicode="&#xcc;" horiz-adv-x="211" 
d="M100 759l-72 103h35l62 -103h-25zM118 708v-708h-25v708h25z" />
    <glyph glyph-name="Iacute" unicode="&#xcd;" horiz-adv-x="211" 
d="M144 862h35l-72 -103h-25zM118 708v-708h-25v708h25z" />
    <glyph glyph-name="Icircumflex" unicode="&#xce;" horiz-adv-x="211" 
d="M206 755h-28l-72 79l-71 -79h-29l86 94h28zM118 708v-708h-25v708h25z" />
    <glyph glyph-name="Idieresis" unicode="&#xcf;" horiz-adv-x="211" 
d="M15 809q0 10 7 17t17 7t17 -7t7 -17t-7 -17t-17 -7t-17 7t-7 17zM145 809q0 10 7 17t17 7t17 -7t7 -17t-7 -17t-17 -7t-17 7t-7 17zM118 708v-708h-25v708h25z" />
    <glyph glyph-name="Eth" unicode="&#xd0;" horiz-adv-x="639" 
d="M94 362v346h219q101 0 174.5 -52.5t73.5 -147.5v-309q0 -94 -73.5 -146.5t-174.5 -52.5h-219v342h-63v20h63zM119 25h194q91 0 157 45.5t66 128.5v309q0 83 -66 129t-157 46h-194v-321h145v-20h-145v-317z" />
    <glyph glyph-name="Ntilde" unicode="&#xd1;" horiz-adv-x="671" 
d="M253 788l-15 6q19 49 60 49q21 0 53 -24t46 -24q26 0 39 32l16 -6q-16 -48 -55 -48q-20 0 -51.5 24.5t-48.5 24.5q-29 0 -44 -34zM132 708l421 -684v684h25v-708h-43l-415 676l-1 -676h-26v708h39z" />
    <glyph glyph-name="Ograve" unicode="&#xd2;" horiz-adv-x="682" 
d="M333 758l-72 103h35l62 -103h-25zM77 191v327q0 94 78 147t185 53t185.5 -53t78.5 -147v-327q0 -94 -78.5 -147.5t-185.5 -53.5t-185 53.5t-78 147.5zM102 518v-327q0 -84 70.5 -130t167.5 -46t168 46.5t71 129.5v327q0 87 -70.5 131.5t-169.5 44.5q-98 -1 -167.5 -45.5
t-69.5 -130.5z" />
    <glyph glyph-name="Oacute" unicode="&#xd3;" horiz-adv-x="682" 
d="M377 861h35l-72 -103h-25zM77 191v327q0 94 78 147t185 53t185.5 -53t78.5 -147v-327q0 -94 -78.5 -147.5t-185.5 -53.5t-185 53.5t-78 147.5zM102 518v-327q0 -84 70.5 -130t167.5 -46t168 46.5t71 129.5v327q0 87 -70.5 131.5t-169.5 44.5q-98 -1 -167.5 -45.5
t-69.5 -130.5z" />
    <glyph glyph-name="Ocircumflex" unicode="&#xd4;" horiz-adv-x="682" 
d="M439 754h-28l-72 79l-71 -79h-29l86 94h28zM77 191v327q0 94 78 147t185 53t185.5 -53t78.5 -147v-327q0 -94 -78.5 -147.5t-185.5 -53.5t-185 53.5t-78 147.5zM102 518v-327q0 -84 70.5 -130t167.5 -46t168 46.5t71 129.5v327q0 87 -70.5 131.5t-169.5 44.5
q-98 -1 -167.5 -45.5t-69.5 -130.5z" />
    <glyph glyph-name="Otilde" unicode="&#xd5;" horiz-adv-x="682" 
d="M250 787l-15 6q19 49 60 49q21 0 53 -24t46 -24q26 0 39 32l16 -6q-16 -48 -55 -48q-20 0 -51.5 24.5t-48.5 24.5q-29 0 -44 -34zM77 191v327q0 94 78 147t185 53t185.5 -53t78.5 -147v-327q0 -94 -78.5 -147.5t-185.5 -53.5t-185 53.5t-78 147.5zM102 518v-327
q0 -84 70.5 -130t167.5 -46t168 46.5t71 129.5v327q0 87 -70.5 131.5t-169.5 44.5q-98 -1 -167.5 -45.5t-69.5 -130.5z" />
    <glyph glyph-name="Odieresis" unicode="&#xd6;" horiz-adv-x="682" 
d="M222 808q0 10 7 17t17 7t17 -7t7 -17t-7 -17t-17 -7t-17 7t-7 17zM402 808q0 10 7 17t17 7t17 -7t7 -17t-7 -17t-17 -7t-17 7t-7 17zM77 191v327q0 94 78 147t185 53t185.5 -53t78.5 -147v-327q0 -94 -78.5 -147.5t-185.5 -53.5t-185 53.5t-78 147.5zM102 518v-327
q0 -84 70.5 -130t167.5 -46t168 46.5t71 129.5v327q0 87 -70.5 131.5t-169.5 44.5q-98 -1 -167.5 -45.5t-69.5 -130.5z" />
    <glyph glyph-name="multiply" unicode="&#xd7;" horiz-adv-x="494" 
d="M248 354l159 159l17 -16l-160 -159l157 -157l-16 -17l-157 157l-161 -161l-16 17l160 160l-163 164l17 16z" />
    <glyph glyph-name="Oslash" unicode="&#xd8;" horiz-adv-x="681" 
d="M77 199v311q0 94 78 147t185 53q67 0 123 -21l29 71l19 -7l-29 -71q122 -63 122 -172v-311q0 -94 -78.5 -147.5t-185.5 -53.5q-47 0 -120 21l-30 -74l-19 5l29 76q-123 62 -123 173zM101 510v-311q0 -91 109 -152l244 622q-44 17 -115 17q-98 -1 -168 -45.5t-70 -130.5z
M581 199v311q0 90 -108 151l-244 -620q69 -19 111 -19q96 0 168 47t73 130z" />
    <glyph glyph-name="Ugrave" unicode="&#xd9;" horiz-adv-x="673" 
d="M331 759l-72 103h35l62 -103h-25zM113 708v-514q0 -85 66 -132.5t157 -47.5q90 0 157 47.5t67 132.5v514h25v-514q0 -96 -74 -150t-175 -54q-100 0 -174 54t-74 150v514h25z" />
    <glyph glyph-name="Uacute" unicode="&#xda;" horiz-adv-x="673" 
d="M375 862h35l-72 -103h-25zM113 708v-514q0 -85 66 -132.5t157 -47.5q90 0 157 47.5t67 132.5v514h25v-514q0 -96 -74 -150t-175 -54q-100 0 -174 54t-74 150v514h25z" />
    <glyph glyph-name="Ucircumflex" unicode="&#xdb;" horiz-adv-x="673" 
d="M437 755h-28l-72 79l-71 -79h-29l86 94h28zM113 708v-514q0 -85 66 -132.5t157 -47.5q90 0 157 47.5t67 132.5v514h25v-514q0 -96 -74 -150t-175 -54q-100 0 -174 54t-74 150v514h25z" />
    <glyph glyph-name="Udieresis" unicode="&#xdc;" horiz-adv-x="673" 
d="M220 809q0 10 7 17t17 7t17 -7t7 -17t-7 -17t-17 -7t-17 7t-7 17zM400 809q0 10 7 17t17 7t17 -7t7 -17t-7 -17t-17 -7t-17 7t-7 17zM113 708v-514q0 -85 66 -132.5t157 -47.5q90 0 157 47.5t67 132.5v514h25v-514q0 -96 -74 -150t-175 -54q-100 0 -174 54t-74 150v514
h25z" />
    <glyph glyph-name="Yacute" unicode="&#xdd;" horiz-adv-x="550" 
d="M312 862h35l-72 -103h-25zM286 281v-281h-25v281l-242 427h30l225 -399l232 399h31z" />
    <glyph glyph-name="Thorn" unicode="&#xde;" horiz-adv-x="604" 
d="M118 0h-25v708h25v-120h225q102 0 159.5 -65t57.5 -150q0 -84 -57 -147t-159 -64h-226v-162zM118 187h225q92 0 142 55.5t50 131.5t-51 133t-141 58h-225v-378z" />
    <glyph glyph-name="germandbls" unicode="&#xdf;" horiz-adv-x="581" 
d="M281 26q88 -2 154.5 48.5t66.5 133.5t-54 125.5t-141 41.5h-116v22h116q70 0 116.5 39.5t46.5 112.5q0 74 -53.5 110t-128.5 36q-71 0 -126.5 -41.5t-55.5 -110.5v-543h-24v543q0 80 61.5 127.5t144.5 47.5q84 0 145.5 -45t61.5 -124q0 -122 -103 -160q136 -41 136 -182
q0 -95 -74.5 -152t-171.5 -55q-49 2 -103 24l1 26q60 -23 101 -24z" />
    <glyph glyph-name="agrave" unicode="&#xe0;" 
d="M294 759l-72 103h35l62 -103h-25zM139 253l-94 -253h-27l262 708h40l262 -708h-27l-94 253h-322zM302 684h-4l-150 -406h304z" />
    <glyph glyph-name="aacute" unicode="&#xe1;" 
d="M338 862h35l-72 -103h-25zM139 253l-94 -253h-27l262 708h40l262 -708h-27l-94 253h-322zM302 684h-4l-150 -406h304z" />
    <glyph glyph-name="acircumflex" unicode="&#xe2;" 
d="M400 755h-28l-72 79l-71 -79h-29l86 94h28zM139 253l-94 -253h-27l262 708h40l262 -708h-27l-94 253h-322zM302 684h-4l-150 -406h304z" />
    <glyph glyph-name="atilde" unicode="&#xe3;" 
d="M211 788l-15 6q19 49 60 49q21 0 53 -24t46 -24q26 0 39 32l16 -6q-16 -48 -55 -48q-20 0 -51.5 24.5t-48.5 24.5q-29 0 -44 -34zM139 253l-94 -253h-27l262 708h40l262 -708h-27l-94 253h-322zM302 684h-4l-150 -406h304z" />
    <glyph glyph-name="adieresis" unicode="&#xe4;" 
d="M183 809q0 10 7 17t17 7t17 -7t7 -17t-7 -17t-17 -7t-17 7t-7 17zM363 809q0 10 7 17t17 7t17 -7t7 -17t-7 -17t-17 -7t-17 7t-7 17zM139 253l-94 -253h-27l262 708h40l262 -708h-27l-94 253h-322zM302 684h-4l-150 -406h304z" />
    <glyph glyph-name="aring" unicode="&#xe5;" 
d="M582 0h-27l-94 253h-322l-94 -253h-27l257 693q-23 8 -37.5 27.5t-14.5 46.5q0 37 22.5 57.5t55.5 20.5t54 -23.5t21 -55.5q0 -24 -14 -44.5t-37 -28.5zM246 766q0 -23 16 -39.5t38 -16.5q23 0 39 17t16 40t-16 40t-39 17q-24 0 -39 -15.5t-15 -42.5zM452 278l-150 406
h-4l-150 -406h304z" />
    <glyph glyph-name="ae" unicode="&#xe6;" horiz-adv-x="771" 
d="M720 708v-24h-304v-328h273v-24h-273v-310h304v-22h-327v253h-231l-128 -253h-28l351 708h363zM373 686l-200 -410h220v411z" />
    <glyph glyph-name="ccedilla" unicode="&#xe7;" horiz-adv-x="584" 
d="M326 15q63 0 118 23t83 66l22 -11q-28 -44 -81 -70.5t-116 -31.5l-34 -60q40 0 59 -21t13 -53q-5 -27 -31 -45.5t-66 -16.5q-30 1 -65 19l3 18q34 -18 62 -19q35 -1 54 13t23 36q5 27 -16.5 42.5t-62.5 10.5l42 75h-7q-100 0 -174 52.5t-74 145.5v332q0 92 75 145t176 53
q70 0 130 -26.5t90 -75.5l-22 -16q-27 44 -82.5 69t-118.5 25q-90 0 -156.5 -46t-66.5 -128v-332q0 -82 66.5 -127.5t156.5 -45.5z" />
    <glyph glyph-name="egrave" unicode="&#xe8;" horiz-adv-x="565" 
d="M301 759l-72 103h35l62 -103h-25zM118 683v-317h366v-27h-366v-314h396v-25h-421v708h421v-25h-396z" />
    <glyph glyph-name="eacute" unicode="&#xe9;" horiz-adv-x="565" 
d="M345 862h35l-72 -103h-25zM118 683v-317h366v-27h-366v-314h396v-25h-421v708h421v-25h-396z" />
    <glyph glyph-name="ecircumflex" unicode="&#xea;" horiz-adv-x="565" 
d="M407 755h-28l-72 79l-71 -79h-29l86 94h28zM118 683v-317h366v-27h-366v-314h396v-25h-421v708h421v-25h-396z" />
    <glyph glyph-name="edieresis" unicode="&#xeb;" horiz-adv-x="565" 
d="M190 809q0 10 7 17t17 7t17 -7t7 -17t-7 -17t-17 -7t-17 7t-7 17zM370 809q0 10 7 17t17 7t17 -7t7 -17t-7 -17t-17 -7t-17 7t-7 17zM118 683v-317h366v-27h-366v-314h396v-25h-421v708h421v-25h-396z" />
    <glyph glyph-name="igrave" unicode="&#xec;" horiz-adv-x="211" 
d="M100 759l-72 103h35l62 -103h-25zM118 708v-708h-25v708h25z" />
    <glyph glyph-name="iacute" unicode="&#xed;" horiz-adv-x="211" 
d="M144 862h35l-72 -103h-25zM118 708v-708h-25v708h25z" />
    <glyph glyph-name="icircumflex" unicode="&#xee;" horiz-adv-x="211" 
d="M206 755h-28l-72 79l-71 -79h-29l86 94h28zM118 708v-708h-25v708h25z" />
    <glyph glyph-name="idieresis" unicode="&#xef;" horiz-adv-x="211" 
d="M15 809q0 10 7 17t17 7t17 -7t7 -17t-7 -17t-17 -7t-17 7t-7 17zM145 809q0 10 7 17t17 7t17 -7t7 -17t-7 -17t-17 -7t-17 7t-7 17zM118 708v-708h-25v708h25z" />
    <glyph glyph-name="eth" unicode="&#xf0;" horiz-adv-x="639" 
d="M94 362v346h219q101 0 174.5 -52.5t73.5 -147.5v-309q0 -94 -73.5 -146.5t-174.5 -52.5h-219v342h-63v20h63zM119 25h194q91 0 157 45.5t66 128.5v309q0 83 -66 129t-157 46h-194v-321h145v-20h-145v-317z" />
    <glyph glyph-name="ntilde" unicode="&#xf1;" horiz-adv-x="671" 
d="M253 788l-15 6q19 49 60 49q21 0 53 -24t46 -24q26 0 39 32l16 -6q-16 -48 -55 -48q-20 0 -51.5 24.5t-48.5 24.5q-29 0 -44 -34zM132 708l421 -684v684h25v-708h-43l-415 676l-1 -676h-26v708h39z" />
    <glyph glyph-name="ograve" unicode="&#xf2;" horiz-adv-x="682" 
d="M333 758l-72 103h35l62 -103h-25zM77 191v327q0 94 78 147t185 53t185.5 -53t78.5 -147v-327q0 -94 -78.5 -147.5t-185.5 -53.5t-185 53.5t-78 147.5zM102 518v-327q0 -84 70.5 -130t167.5 -46t168 46.5t71 129.5v327q0 87 -70.5 131.5t-169.5 44.5q-98 -1 -167.5 -45.5
t-69.5 -130.5z" />
    <glyph glyph-name="oacute" unicode="&#xf3;" horiz-adv-x="682" 
d="M377 861h35l-72 -103h-25zM77 191v327q0 94 78 147t185 53t185.5 -53t78.5 -147v-327q0 -94 -78.5 -147.5t-185.5 -53.5t-185 53.5t-78 147.5zM102 518v-327q0 -84 70.5 -130t167.5 -46t168 46.5t71 129.5v327q0 87 -70.5 131.5t-169.5 44.5q-98 -1 -167.5 -45.5
t-69.5 -130.5z" />
    <glyph glyph-name="ocircumflex" unicode="&#xf4;" horiz-adv-x="682" 
d="M439 754h-28l-72 79l-71 -79h-29l86 94h28zM77 191v327q0 94 78 147t185 53t185.5 -53t78.5 -147v-327q0 -94 -78.5 -147.5t-185.5 -53.5t-185 53.5t-78 147.5zM102 518v-327q0 -84 70.5 -130t167.5 -46t168 46.5t71 129.5v327q0 87 -70.5 131.5t-169.5 44.5
q-98 -1 -167.5 -45.5t-69.5 -130.5z" />
    <glyph glyph-name="otilde" unicode="&#xf5;" horiz-adv-x="682" 
d="M250 787l-15 6q19 49 60 49q21 0 53 -24t46 -24q26 0 39 32l16 -6q-16 -48 -55 -48q-20 0 -51.5 24.5t-48.5 24.5q-29 0 -44 -34zM77 191v327q0 94 78 147t185 53t185.5 -53t78.5 -147v-327q0 -94 -78.5 -147.5t-185.5 -53.5t-185 53.5t-78 147.5zM102 518v-327
q0 -84 70.5 -130t167.5 -46t168 46.5t71 129.5v327q0 87 -70.5 131.5t-169.5 44.5q-98 -1 -167.5 -45.5t-69.5 -130.5z" />
    <glyph glyph-name="odieresis" unicode="&#xf6;" horiz-adv-x="682" 
d="M222 808q0 10 7 17t17 7t17 -7t7 -17t-7 -17t-17 -7t-17 7t-7 17zM402 808q0 10 7 17t17 7t17 -7t7 -17t-7 -17t-17 -7t-17 7t-7 17zM77 191v327q0 94 78 147t185 53t185.5 -53t78.5 -147v-327q0 -94 -78.5 -147.5t-185.5 -53.5t-185 53.5t-78 147.5zM102 518v-327
q0 -84 70.5 -130t167.5 -46t168 46.5t71 129.5v327q0 87 -70.5 131.5t-169.5 44.5q-98 -1 -167.5 -45.5t-69.5 -130.5z" />
    <glyph glyph-name="divide" unicode="&#xf7;" horiz-adv-x="494" 
d="M248 354l159 159l17 -16l-160 -159l157 -157l-16 -17l-157 157l-161 -161l-16 17l160 160l-163 164l17 16z" />
    <glyph glyph-name="oslash" unicode="&#xf8;" horiz-adv-x="681" 
d="M77 199v311q0 94 78 147t185 53q67 0 123 -21l29 71l19 -7l-29 -71q122 -63 122 -172v-311q0 -94 -78.5 -147.5t-185.5 -53.5q-47 0 -120 21l-30 -74l-19 5l29 76q-123 62 -123 173zM101 510v-311q0 -91 109 -152l244 622q-44 17 -115 17q-98 -1 -168 -45.5t-70 -130.5z
M581 199v311q0 90 -108 151l-244 -620q69 -19 111 -19q96 0 168 47t73 130z" />
    <glyph glyph-name="ugrave" unicode="&#xf9;" horiz-adv-x="673" 
d="M331 759l-72 103h35l62 -103h-25zM113 708v-514q0 -85 66 -132.5t157 -47.5q90 0 157 47.5t67 132.5v514h25v-514q0 -96 -74 -150t-175 -54q-100 0 -174 54t-74 150v514h25z" />
    <glyph glyph-name="uacute" unicode="&#xfa;" horiz-adv-x="673" 
d="M375 862h35l-72 -103h-25zM113 708v-514q0 -85 66 -132.5t157 -47.5q90 0 157 47.5t67 132.5v514h25v-514q0 -96 -74 -150t-175 -54q-100 0 -174 54t-74 150v514h25z" />
    <glyph glyph-name="ucircumflex" unicode="&#xfb;" horiz-adv-x="673" 
d="M437 755h-28l-72 79l-71 -79h-29l86 94h28zM113 708v-514q0 -85 66 -132.5t157 -47.5q90 0 157 47.5t67 132.5v514h25v-514q0 -96 -74 -150t-175 -54q-100 0 -174 54t-74 150v514h25z" />
    <glyph glyph-name="udieresis" unicode="&#xfc;" horiz-adv-x="673" 
d="M220 809q0 10 7 17t17 7t17 -7t7 -17t-7 -17t-17 -7t-17 7t-7 17zM400 809q0 10 7 17t17 7t17 -7t7 -17t-7 -17t-17 -7t-17 7t-7 17zM113 708v-514q0 -85 66 -132.5t157 -47.5q90 0 157 47.5t67 132.5v514h25v-514q0 -96 -74 -150t-175 -54q-100 0 -174 54t-74 150v514
h25z" />
    <glyph glyph-name="yacute" unicode="&#xfd;" horiz-adv-x="550" 
d="M312 862h35l-72 -103h-25zM286 281v-281h-25v281l-242 427h30l225 -399l232 399h31z" />
    <glyph glyph-name="thorn" unicode="&#xfe;" horiz-adv-x="604" 
d="M118 0h-25v708h25v-120h225q102 0 159.5 -65t57.5 -150q0 -84 -57 -147t-159 -64h-226v-162zM118 187h225q92 0 142 55.5t50 131.5t-51 133t-141 58h-225v-378z" />
    <glyph glyph-name="ydieresis" unicode="&#xff;" horiz-adv-x="550" 
d="M157 809q0 10 7 17t17 7t17 -7t7 -17t-7 -17t-17 -7t-17 7t-7 17zM337 809q0 10 7 17t17 7t17 -7t7 -17t-7 -17t-17 -7t-17 7t-7 17zM286 281v-281h-25v281l-242 427h30l225 -399l232 399h31z" />
    <glyph glyph-name="Amacron" unicode="&#x100;" 
d="M201 786v21h197v-21h-197zM139 253l-94 -253h-27l262 708h40l262 -708h-27l-94 253h-322zM302 684h-4l-150 -406h304z" />
    <glyph glyph-name="amacron" unicode="&#x101;" 
d="M201 786v21h197v-21h-197zM139 253l-94 -253h-27l262 708h40l262 -708h-27l-94 253h-322zM302 684h-4l-150 -406h304z" />
    <glyph glyph-name="Abreve" unicode="&#x102;" 
d="M300 777q-35 0 -63 20t-37 57h23q8 -27 29.5 -41t47.5 -14t47.5 14t29.5 41h23q-9 -37 -37 -57t-63 -20zM139 253l-94 -253h-27l262 708h40l262 -708h-27l-94 253h-322zM302 684h-4l-150 -406h304z" />
    <glyph glyph-name="abreve" unicode="&#x103;" 
d="M300 777q-35 0 -63 20t-37 57h23q8 -27 29.5 -41t47.5 -14t47.5 14t29.5 41h23q-9 -37 -37 -57t-63 -20zM139 253l-94 -253h-27l262 708h40l262 -708h-27l-94 253h-322zM302 684h-4l-150 -406h304z" />
    <glyph glyph-name="Aogonek" unicode="&#x104;" 
d="M617 -164l6 -15q-34 -30 -74 -24t-52 48q-9 34 5.5 70t54.5 85h-2l-94 253h-322l-94 -253h-27l262 708h40l262 -708h-2q-44 -55 -56.5 -88.5t-4.5 -60.5q9 -27 35.5 -32.5t62.5 17.5zM452 278l-150 406h-4l-150 -406h304z" />
    <glyph glyph-name="aogonek" unicode="&#x105;" 
d="M617 -164l6 -15q-34 -30 -74 -24t-52 48q-9 34 5.5 70t54.5 85h-2l-94 253h-322l-94 -253h-27l262 708h40l262 -708h-2q-44 -55 -56.5 -88.5t-4.5 -60.5q9 -27 35.5 -32.5t62.5 17.5zM452 278l-150 406h-4l-150 -406h304z" />
    <glyph glyph-name="Cacute" unicode="&#x106;" horiz-adv-x="584" 
d="M367 862h35l-72 -103h-25zM78 188v332q0 92 75 145t176 53q70 0 130 -26.5t90 -75.5l-22 -16q-27 44 -82.5 69t-118.5 25q-90 0 -156.5 -46t-66.5 -128v-332q0 -82 66.5 -127.5t156.5 -45.5q63 0 118 23t83 66l22 -11q-30 -49 -91.5 -76t-131.5 -27q-100 0 -174 52.5
t-74 145.5z" />
    <glyph glyph-name="cacute" unicode="&#x107;" horiz-adv-x="584" 
d="M367 862h35l-72 -103h-25zM78 188v332q0 92 75 145t176 53q70 0 130 -26.5t90 -75.5l-22 -16q-27 44 -82.5 69t-118.5 25q-90 0 -156.5 -46t-66.5 -128v-332q0 -82 66.5 -127.5t156.5 -45.5q63 0 118 23t83 66l22 -11q-30 -49 -91.5 -76t-131.5 -27q-100 0 -174 52.5
t-74 145.5z" />
    <glyph glyph-name="Cdotaccent" unicode="&#x10a;" horiz-adv-x="584" 
d="M302 804q0 12 8 20t19 8t19 -8t8 -20q0 -11 -8 -19t-19 -8t-19 8t-8 19zM78 188v332q0 92 75 145t176 53q70 0 130 -26.5t90 -75.5l-22 -16q-27 44 -82.5 69t-118.5 25q-90 0 -156.5 -46t-66.5 -128v-332q0 -82 66.5 -127.5t156.5 -45.5q63 0 118 23t83 66l22 -11
q-30 -49 -91.5 -76t-131.5 -27q-100 0 -174 52.5t-74 145.5z" />
    <glyph glyph-name="cdotaccent" unicode="&#x10b;" horiz-adv-x="584" 
d="M302 804q0 12 8 20t19 8t19 -8t8 -20q0 -11 -8 -19t-19 -8t-19 8t-8 19zM78 188v332q0 92 75 145t176 53q70 0 130 -26.5t90 -75.5l-22 -16q-27 44 -82.5 69t-118.5 25q-90 0 -156.5 -46t-66.5 -128v-332q0 -82 66.5 -127.5t156.5 -45.5q63 0 118 23t83 66l22 -11
q-30 -49 -91.5 -76t-131.5 -27q-100 0 -174 52.5t-74 145.5z" />
    <glyph glyph-name="Ccaron" unicode="&#x10c;" horiz-adv-x="584" 
d="M315 760l-86 94h29l71 -79l72 79h28l-86 -94h-28zM78 188v332q0 92 75 145t176 53q70 0 130 -26.5t90 -75.5l-22 -16q-27 44 -82.5 69t-118.5 25q-90 0 -156.5 -46t-66.5 -128v-332q0 -82 66.5 -127.5t156.5 -45.5q63 0 118 23t83 66l22 -11q-30 -49 -91.5 -76
t-131.5 -27q-100 0 -174 52.5t-74 145.5z" />
    <glyph glyph-name="ccaron" unicode="&#x10d;" horiz-adv-x="584" 
d="M315 760l-86 94h29l71 -79l72 79h28l-86 -94h-28zM78 188v332q0 92 75 145t176 53q70 0 130 -26.5t90 -75.5l-22 -16q-27 44 -82.5 69t-118.5 25q-90 0 -156.5 -46t-66.5 -128v-332q0 -82 66.5 -127.5t156.5 -45.5q63 0 118 23t83 66l22 -11q-30 -49 -91.5 -76
t-131.5 -27q-100 0 -174 52.5t-74 145.5z" />
    <glyph glyph-name="Dcaron" unicode="&#x10e;" horiz-adv-x="641" 
d="M289 760l-86 94h29l71 -79l72 79h28l-86 -94h-28zM93 708h239q100 0 164 -47.5t64 -142.5v-329q0 -95 -64 -142t-164 -47h-239v708zM118 25h214q90 0 146.5 40.5t56.5 123.5v329q0 84 -56.5 124.5t-146.5 40.5h-214v-658z" />
    <glyph glyph-name="dcaron" unicode="&#x10f;" horiz-adv-x="641" 
d="M289 760l-86 94h29l71 -79l72 79h28l-86 -94h-28zM93 708h239q100 0 164 -47.5t64 -142.5v-329q0 -95 -64 -142t-164 -47h-239v708zM118 25h214q90 0 146.5 40.5t56.5 123.5v329q0 84 -56.5 124.5t-146.5 40.5h-214v-658z" />
    <glyph glyph-name="Dcroat" unicode="&#x110;" horiz-adv-x="639" 
d="M94 362v346h219q101 0 174.5 -52.5t73.5 -147.5v-309q0 -94 -73.5 -146.5t-174.5 -52.5h-219v342h-63v20h63zM119 25h194q91 0 157 45.5t66 128.5v309q0 83 -66 129t-157 46h-194v-321h145v-20h-145v-317z" />
    <glyph glyph-name="dcroat" unicode="&#x111;" horiz-adv-x="639" 
d="M94 362v346h219q101 0 174.5 -52.5t73.5 -147.5v-309q0 -94 -73.5 -146.5t-174.5 -52.5h-219v342h-63v20h63zM119 25h194q91 0 157 45.5t66 128.5v309q0 83 -66 129t-157 46h-194v-321h145v-20h-145v-317z" />
    <glyph glyph-name="Emacron" unicode="&#x112;" horiz-adv-x="565" 
d="M208 786v21h197v-21h-197zM118 683v-317h366v-27h-366v-314h396v-25h-421v708h421v-25h-396z" />
    <glyph glyph-name="emacron" unicode="&#x113;" horiz-adv-x="565" 
d="M208 786v21h197v-21h-197zM118 683v-317h366v-27h-366v-314h396v-25h-421v708h421v-25h-396z" />
    <glyph glyph-name="Edotaccent" unicode="&#x116;" horiz-adv-x="565" 
d="M280 804q0 12 8 20t19 8t19 -8t8 -20q0 -11 -8 -19t-19 -8t-19 8t-8 19zM118 683v-317h366v-27h-366v-314h396v-25h-421v708h421v-25h-396z" />
    <glyph glyph-name="edotaccent" unicode="&#x117;" horiz-adv-x="565" 
d="M280 804q0 12 8 20t19 8t19 -8t8 -20q0 -11 -8 -19t-19 -8t-19 8t-8 19zM118 683v-317h366v-27h-366v-314h396v-25h-421v708h421v-25h-396z" />
    <glyph glyph-name="Eogonek" unicode="&#x118;" horiz-adv-x="564" 
d="M549 -164l6 -15q-34 -30 -74 -24t-52 48q-9 34 5.5 70t54.5 85h-397v708h421v-25h-396v-317h366v-27h-366v-314h396v-25h-1q-44 -55 -56.5 -88.5t-4.5 -60.5q9 -27 35.5 -32.5t62.5 17.5z" />
    <glyph glyph-name="eogonek" unicode="&#x119;" horiz-adv-x="564" 
d="M549 -164l6 -15q-34 -30 -74 -24t-52 48q-9 34 5.5 70t54.5 85h-397v708h421v-25h-396v-317h366v-27h-366v-314h396v-25h-1q-44 -55 -56.5 -88.5t-4.5 -60.5q9 -27 35.5 -32.5t62.5 17.5z" />
    <glyph glyph-name="Ecaron" unicode="&#x11a;" horiz-adv-x="565" 
d="M293 760l-86 94h29l71 -79l72 79h28l-86 -94h-28zM118 683v-317h366v-27h-366v-314h396v-25h-421v708h421v-25h-396z" />
    <glyph glyph-name="ecaron" unicode="&#x11b;" horiz-adv-x="565" 
d="M293 760l-86 94h29l71 -79l72 79h28l-86 -94h-28zM118 683v-317h366v-27h-366v-314h396v-25h-421v708h421v-25h-396z" />
    <glyph glyph-name="Gbreve" unicode="&#x11e;" horiz-adv-x="634" 
d="M326 777q-35 0 -63 20t-37 57h23q8 -27 29.5 -41t47.5 -14t47.5 14t29.5 41h23q-9 -37 -37 -57t-63 -20zM78 191v329q0 92 74 145t174 53q69 0 128.5 -27t90.5 -76l-23 -15q-26 46 -79.5 69.5t-118.5 23.5q-90 0 -155.5 -45.5t-65.5 -127.5v-329q0 -84 66 -130.5
t157 -46.5q90 0 157 47t67 130v134h-217v24h242v-158q0 -95 -74 -148t-175 -53t-174.5 53t-73.5 148z" />
    <glyph glyph-name="gbreve" unicode="&#x11f;" horiz-adv-x="634" 
d="M326 777q-35 0 -63 20t-37 57h23q8 -27 29.5 -41t47.5 -14t47.5 14t29.5 41h23q-9 -37 -37 -57t-63 -20zM78 191v329q0 92 74 145t174 53q69 0 128.5 -27t90.5 -76l-23 -15q-26 46 -79.5 69.5t-118.5 23.5q-90 0 -155.5 -45.5t-65.5 -127.5v-329q0 -84 66 -130.5
t157 -46.5q90 0 157 47t67 130v134h-217v24h242v-158q0 -95 -74 -148t-175 -53t-174.5 53t-73.5 148z" />
    <glyph glyph-name="Gdotaccent" unicode="&#x120;" horiz-adv-x="634" 
d="M299 804q0 12 8 20t19 8t19 -8t8 -20q0 -11 -8 -19t-19 -8t-19 8t-8 19zM78 191v329q0 92 74 145t174 53q69 0 128.5 -27t90.5 -76l-23 -15q-26 46 -79.5 69.5t-118.5 23.5q-90 0 -155.5 -45.5t-65.5 -127.5v-329q0 -84 66 -130.5t157 -46.5q90 0 157 47t67 130v134h-217
v24h242v-158q0 -95 -74 -148t-175 -53t-174.5 53t-73.5 148z" />
    <glyph glyph-name="gdotaccent" unicode="&#x121;" horiz-adv-x="634" 
d="M299 804q0 12 8 20t19 8t19 -8t8 -20q0 -11 -8 -19t-19 -8t-19 8t-8 19zM78 191v329q0 92 74 145t174 53q69 0 128.5 -27t90.5 -76l-23 -15q-26 46 -79.5 69.5t-118.5 23.5q-90 0 -155.5 -45.5t-65.5 -127.5v-329q0 -84 66 -130.5t157 -46.5q90 0 157 47t67 130v134h-217
v24h242v-158q0 -95 -74 -148t-175 -53t-174.5 53t-73.5 148z" />
    <glyph glyph-name="Gcommaaccent" unicode="&#x122;" horiz-adv-x="634" 
d="M78 191v329q0 92 74 145t174 53q69 0 128.5 -27t90.5 -76l-23 -15q-26 46 -79.5 69.5t-118.5 23.5q-90 0 -155.5 -45.5t-65.5 -127.5v-329q0 -84 66 -130.5t157 -46.5q90 0 157 47t67 130v134h-217v24h242v-158q0 -95 -74 -148t-175 -53t-174.5 53t-73.5 148zM340 -98
l-61 -149h-22l50 149h33z" />
    <glyph glyph-name="gcommaaccent" unicode="&#x123;" horiz-adv-x="634" 
d="M78 191v329q0 92 74 145t174 53q69 0 128.5 -27t90.5 -76l-23 -15q-26 46 -79.5 69.5t-118.5 23.5q-90 0 -155.5 -45.5t-65.5 -127.5v-329q0 -84 66 -130.5t157 -46.5q90 0 157 47t67 130v134h-217v24h242v-158q0 -95 -74 -148t-175 -53t-174.5 53t-73.5 148zM340 -98
l-61 -149h-22l50 149h33z" />
    <glyph glyph-name="Hbar" unicode="&#x126;" horiz-adv-x="688" 
d="M593 538v-538h-25v341h-447v-341h-25v538h-75v23h75v147h25v-147h447v147h25v-147h72v-23h-72zM121 538v-172h447v172h-447z" />
    <glyph glyph-name="hbar" unicode="&#x127;" horiz-adv-x="688" 
d="M593 538v-538h-25v341h-447v-341h-25v538h-75v23h75v147h25v-147h447v147h25v-147h72v-23h-72zM121 538v-172h447v172h-447z" />
    <glyph glyph-name="Imacron" unicode="&#x12a;" horiz-adv-x="211" 
d="M7 786v21h197v-21h-197zM118 708v-708h-25v708h25z" />
    <glyph glyph-name="imacron" unicode="&#x12b;" horiz-adv-x="211" 
d="M7 786v21h197v-21h-197zM118 708v-708h-25v708h25z" />
    <glyph glyph-name="Iogonek" unicode="&#x12e;" horiz-adv-x="211" 
d="M155 -164l6 -15q-34 -30 -74 -24t-52 48q-9 34 5.5 70t54.5 85h-2v708h25v-708q-44 -55 -56.5 -88.5t-4.5 -60.5q9 -27 35.5 -32.5t62.5 17.5z" />
    <glyph glyph-name="iogonek" unicode="&#x12f;" horiz-adv-x="211" 
d="M155 -164l6 -15q-34 -30 -74 -24t-52 48q-9 34 5.5 70t54.5 85h-2v708h25v-708q-44 -55 -56.5 -88.5t-4.5 -60.5q9 -27 35.5 -32.5t62.5 17.5z" />
    <glyph glyph-name="Idotaccent" unicode="&#x130;" horiz-adv-x="211" 
d="M79 804q0 12 8 20t19 8t19 -8t8 -20q0 -11 -8 -19t-19 -8t-19 8t-8 19zM118 708v-708h-25v708h25z" />
    <glyph glyph-name="dotlessi" unicode="&#x131;" horiz-adv-x="211" 
d="M118 708v-708h-25v708h25z" />
    <glyph glyph-name="IJ" unicode="&#x132;" horiz-adv-x="787" 
d="M117 708v-708h-25v708h25zM438 685v23h261v-521q0 -92 -71 -144.5t-167 -52.5q-77 0 -140 37.5t-84 105.5l25 8q21 -63 78 -95t122 -32q85 0 148.5 45.5t63.5 127.5v498h-236z" />
    <glyph glyph-name="ij" unicode="&#x133;" horiz-adv-x="787" 
d="M117 708v-708h-25v708h25zM438 685v23h261v-521q0 -92 -71 -144.5t-167 -52.5q-77 0 -140 37.5t-84 105.5l25 8q21 -63 78 -95t122 -32q85 0 148.5 45.5t63.5 127.5v498h-236z" />
    <glyph glyph-name="Kcommaaccent" unicode="&#x136;" horiz-adv-x="591" 
d="M118 708v-430l419 430h32l-327 -341l327 -367h-29l-316 349l-106 -106v-243h-25v708h25zM342 -98l-61 -149h-22l50 149h33z" />
    <glyph glyph-name="kcommaaccent" unicode="&#x137;" horiz-adv-x="591" 
d="M118 708v-430l419 430h32l-327 -341l327 -367h-29l-316 349l-106 -106v-243h-25v708h25zM342 -98l-61 -149h-22l50 149h33z" />
    <glyph glyph-name="Lacute" unicode="&#x139;" horiz-adv-x="493" 
d="M145 862h35l-72 -103h-25zM472 0h-379v708h25v-683h354v-25z" />
    <glyph glyph-name="lacute" unicode="&#x13a;" horiz-adv-x="493" 
d="M145 862h35l-72 -103h-25zM472 0h-379v708h25v-683h354v-25z" />
    <glyph glyph-name="Lcommaaccent" unicode="&#x13b;" horiz-adv-x="493" 
d="M472 0h-379v708h25v-683h354v-25zM307 -98l-61 -149h-22l50 149h33z" />
    <glyph glyph-name="lcommaaccent" unicode="&#x13c;" horiz-adv-x="493" 
d="M472 0h-379v708h25v-683h354v-25zM307 -98l-61 -149h-22l50 149h33z" />
    <glyph glyph-name="Lcaron" unicode="&#x13d;" horiz-adv-x="494" 
d="M472 0h-379v708h25v-683h354v-25zM428 707l-61 -149h-22l50 149h33z" />
    <glyph glyph-name="lcaron" unicode="&#x13e;" horiz-adv-x="494" 
d="M472 0h-379v708h25v-683h354v-25zM428 707l-61 -149h-22l50 149h33z" />
    <glyph glyph-name="Ldot" unicode="&#x13f;" horiz-adv-x="495" 
d="M472 0h-379v708h25v-683h354v-25zM283 311q0 13 9.5 23t23.5 10q13 0 22.5 -10t9.5 -23t-9.5 -22.5t-22.5 -9.5t-23 9.5t-10 22.5z" />
    <glyph glyph-name="ldot" unicode="&#x140;" horiz-adv-x="495" 
d="M472 0h-379v708h25v-683h354v-25zM283 311q0 13 9.5 23t23.5 10q13 0 22.5 -10t9.5 -23t-9.5 -22.5t-22.5 -9.5t-23 9.5t-10 22.5z" />
    <glyph glyph-name="Lslash" unicode="&#x141;" horiz-adv-x="492" 
d="M458 0h-362v294l-67 -30l-8 17l75 34v394h22v-385l148 67l8 -18l-156 -70v-280h340v-23z" />
    <glyph glyph-name="lslash" unicode="&#x142;" horiz-adv-x="492" 
d="M458 0h-362v294l-67 -30l-8 17l75 34v394h22v-385l148 67l8 -18l-156 -70v-280h340v-23z" />
    <glyph glyph-name="Nacute" unicode="&#x143;" horiz-adv-x="671" 
d="M380 862h35l-72 -103h-25zM132 708l421 -684v684h25v-708h-43l-415 676l-1 -676h-26v708h39z" />
    <glyph glyph-name="nacute" unicode="&#x144;" horiz-adv-x="671" 
d="M380 862h35l-72 -103h-25zM132 708l421 -684v684h25v-708h-43l-415 676l-1 -676h-26v708h39z" />
    <glyph glyph-name="Ncommaaccent" unicode="&#x145;" horiz-adv-x="671" 
d="M132 708l421 -684v684h25v-708h-43l-415 676l-1 -676h-26v708h39zM362 -98l-61 -149h-22l50 149h33z" />
    <glyph glyph-name="ncommaaccent" unicode="&#x146;" horiz-adv-x="671" 
d="M132 708l421 -684v684h25v-708h-43l-415 676l-1 -676h-26v708h39zM362 -98l-61 -149h-22l50 149h33z" />
    <glyph glyph-name="Ncaron" unicode="&#x147;" horiz-adv-x="671" 
d="M328 760l-86 94h29l71 -79l72 79h28l-86 -94h-28zM132 708l421 -684v684h25v-708h-43l-415 676l-1 -676h-26v708h39z" />
    <glyph glyph-name="ncaron" unicode="&#x148;" horiz-adv-x="671" 
d="M328 760l-86 94h29l71 -79l72 79h28l-86 -94h-28zM132 708l421 -684v684h25v-708h-43l-415 676l-1 -676h-26v708h39z" />
    <glyph glyph-name="Eng" unicode="&#x14a;" horiz-adv-x="670" 
d="M577 708v-730q0 -70 -36.5 -109.5t-101.5 -43.5v22q113 10 113 131v9l-433 689l-1 -676h-26v708h39l421 -671v671h25z" />
    <glyph glyph-name="eng" unicode="&#x14b;" horiz-adv-x="670" 
d="M577 708v-730q0 -70 -36.5 -109.5t-101.5 -43.5v22q113 10 113 131v9l-433 689l-1 -676h-26v708h39l421 -671v671h25z" />
    <glyph glyph-name="Omacron" unicode="&#x14c;" horiz-adv-x="682" 
d="M240 785v21h197v-21h-197zM77 191v327q0 94 78 147t185 53t185.5 -53t78.5 -147v-327q0 -94 -78.5 -147.5t-185.5 -53.5t-185 53.5t-78 147.5zM102 518v-327q0 -84 70.5 -130t167.5 -46t168 46.5t71 129.5v327q0 87 -70.5 131.5t-169.5 44.5q-98 -1 -167.5 -45.5
t-69.5 -130.5z" />
    <glyph glyph-name="omacron" unicode="&#x14d;" horiz-adv-x="682" 
d="M240 785v21h197v-21h-197zM77 191v327q0 94 78 147t185 53t185.5 -53t78.5 -147v-327q0 -94 -78.5 -147.5t-185.5 -53.5t-185 53.5t-78 147.5zM102 518v-327q0 -84 70.5 -130t167.5 -46t168 46.5t71 129.5v327q0 87 -70.5 131.5t-169.5 44.5q-98 -1 -167.5 -45.5
t-69.5 -130.5z" />
    <glyph glyph-name="Ohungarumlaut" unicode="&#x150;" horiz-adv-x="682" 
d="M336 865l-62 -110h-20l51 110h31zM476 865l-59 -110h-22l51 110h30zM77 191v327q0 94 78 147t185 53t185.5 -53t78.5 -147v-327q0 -94 -78.5 -147.5t-185.5 -53.5t-185 53.5t-78 147.5zM102 518v-327q0 -84 70.5 -130t167.5 -46t168 46.5t71 129.5v327q0 87 -70.5 131.5
t-169.5 44.5q-98 -1 -167.5 -45.5t-69.5 -130.5z" />
    <glyph glyph-name="ohungarumlaut" unicode="&#x151;" horiz-adv-x="682" 
d="M336 865l-62 -110h-20l51 110h31zM476 865l-59 -110h-22l51 110h30zM77 191v327q0 94 78 147t185 53t185.5 -53t78.5 -147v-327q0 -94 -78.5 -147.5t-185.5 -53.5t-185 53.5t-78 147.5zM102 518v-327q0 -84 70.5 -130t167.5 -46t168 46.5t71 129.5v327q0 87 -70.5 131.5
t-169.5 44.5q-98 -1 -167.5 -45.5t-69.5 -130.5z" />
    <glyph glyph-name="OE" unicode="&#x152;" horiz-adv-x="929" 
d="M878 685h-365v-320h334v-24h-334v-317h365v-24h-389v44q-98 -51 -161 -50q-103 2 -179.5 60t-76.5 151v302q0 94 77.5 147.5t183.5 54.5q79 0 156 -51v50h389v-23zM489 68v573q-85 44 -155 43q-98 0 -167.5 -45.5t-69.5 -131.5v-302q0 -84 71 -135t166 -51q63 0 155 49z
" />
    <glyph glyph-name="oe" unicode="&#x153;" horiz-adv-x="929" 
d="M878 685h-365v-320h334v-24h-334v-317h365v-24h-389v44q-98 -51 -161 -50q-103 2 -179.5 60t-76.5 151v302q0 94 77.5 147.5t183.5 54.5q79 0 156 -51v50h389v-23zM489 68v573q-85 44 -155 43q-98 0 -167.5 -45.5t-69.5 -131.5v-302q0 -84 71 -135t166 -51q63 0 155 49z
" />
    <glyph glyph-name="Racute" unicode="&#x154;" horiz-adv-x="611" 
d="M342 862h35l-72 -103h-25zM545 0h-29l-238 316h-161v-316h-24v708h250q216 0 220 -192q0 -200 -219 -200h-38zM117 338h227q98 0 146.5 42.5t48.5 134.5q0 173 -195 170h-227v-347z" />
    <glyph glyph-name="racute" unicode="&#x155;" horiz-adv-x="611" 
d="M342 862h35l-72 -103h-25zM545 0h-29l-238 316h-161v-316h-24v708h250q216 0 220 -192q0 -200 -219 -200h-38zM117 338h227q98 0 146.5 42.5t48.5 134.5q0 173 -195 170h-227v-347z" />
    <glyph glyph-name="Rcommaaccent" unicode="&#x156;" horiz-adv-x="611" 
d="M545 0h-29l-238 316h-161v-316h-24v708h250q216 0 220 -192q0 -200 -219 -200h-38zM117 338h227q98 0 146.5 42.5t48.5 134.5q0 173 -195 170h-227v-347zM329 -98l-61 -149h-22l50 149h33z" />
    <glyph glyph-name="rcommaaccent" unicode="&#x157;" horiz-adv-x="611" 
d="M545 0h-29l-238 316h-161v-316h-24v708h250q216 0 220 -192q0 -200 -219 -200h-38zM117 338h227q98 0 146.5 42.5t48.5 134.5q0 173 -195 170h-227v-347zM329 -98l-61 -149h-22l50 149h33z" />
    <glyph glyph-name="Rcaron" unicode="&#x158;" horiz-adv-x="611" 
d="M290 760l-86 94h29l71 -79l72 79h28l-86 -94h-28zM545 0h-29l-238 316h-161v-316h-24v708h250q216 0 220 -192q0 -200 -219 -200h-38zM117 338h227q98 0 146.5 42.5t48.5 134.5q0 173 -195 170h-227v-347z" />
    <glyph glyph-name="rcaron" unicode="&#x159;" horiz-adv-x="611" 
d="M290 760l-86 94h29l71 -79l72 79h28l-86 -94h-28zM545 0h-29l-238 316h-161v-316h-24v708h250q216 0 220 -192q0 -200 -219 -200h-38zM117 338h227q98 0 146.5 42.5t48.5 134.5q0 173 -195 170h-227v-347z" />
    <glyph glyph-name="Sacute" unicode="&#x15a;" horiz-adv-x="578" 
d="M327 862h35l-72 -103h-25zM86 546q-4 -50 26 -86t74 -54.5t108 -31.5q50 -10 88 -23.5t74.5 -37t55 -61t14.5 -87.5q-6 -81 -75.5 -128t-162.5 -47q-70 0 -132.5 28.5t-100.5 85.5l23 10q34 -48 91 -74t121 -26q80 0 139.5 38.5t69.5 112.5q3 45 -12.5 78t-49.5 53.5
t-67 31.5t-82 22q-48 10 -82.5 22t-71.5 33.5t-56 57t-17 83.5q3 83 69.5 127.5t158.5 44.5q158 0 220 -109l-23 -9q-27 46 -80.5 70t-116.5 24q-82 0 -140 -36.5t-63 -111.5z" />
    <glyph glyph-name="sacute" unicode="&#x15b;" horiz-adv-x="578" 
d="M327 862h35l-72 -103h-25zM86 546q-4 -50 26 -86t74 -54.5t108 -31.5q50 -10 88 -23.5t74.5 -37t55 -61t14.5 -87.5q-6 -81 -75.5 -128t-162.5 -47q-70 0 -132.5 28.5t-100.5 85.5l23 10q34 -48 91 -74t121 -26q80 0 139.5 38.5t69.5 112.5q3 45 -12.5 78t-49.5 53.5
t-67 31.5t-82 22q-48 10 -82.5 22t-71.5 33.5t-56 57t-17 83.5q3 83 69.5 127.5t158.5 44.5q158 0 220 -109l-23 -9q-27 46 -80.5 70t-116.5 24q-82 0 -140 -36.5t-63 -111.5z" />
    <glyph glyph-name="Scedilla" unicode="&#x15e;" horiz-adv-x="578" 
d="M294 374q50 -10 88 -23.5t74.5 -37t55 -61t14.5 -87.5q-5 -75 -66 -121t-146 -53l-34 -61q40 0 59 -21t13 -53q-5 -27 -31 -45.5t-66 -16.5q-30 1 -65 19l3 18q34 -18 62 -19q35 -1 54 13t23 36q5 27 -16.5 42.5t-62.5 10.5l42 76h-7q-70 0 -132.5 28.5t-100.5 85.5
l23 10q34 -48 91 -74t121 -26q80 0 139.5 38.5t69.5 112.5q3 45 -12.5 78t-49.5 53.5t-67 31.5t-82 22q-48 10 -82.5 22t-71.5 33.5t-56 57t-17 83.5q3 83 69.5 127.5t158.5 44.5q158 0 220 -109l-23 -9q-27 46 -80.5 70t-116.5 24q-82 0 -140 -36.5t-63 -111.5
q-4 -50 26 -86t74 -54.5t108 -31.5z" />
    <glyph glyph-name="scedilla" unicode="&#x15f;" horiz-adv-x="578" 
d="M294 374q50 -10 88 -23.5t74.5 -37t55 -61t14.5 -87.5q-5 -75 -66 -121t-146 -53l-34 -61q40 0 59 -21t13 -53q-5 -27 -31 -45.5t-66 -16.5q-30 1 -65 19l3 18q34 -18 62 -19q35 -1 54 13t23 36q5 27 -16.5 42.5t-62.5 10.5l42 76h-7q-70 0 -132.5 28.5t-100.5 85.5
l23 10q34 -48 91 -74t121 -26q80 0 139.5 38.5t69.5 112.5q3 45 -12.5 78t-49.5 53.5t-67 31.5t-82 22q-48 10 -82.5 22t-71.5 33.5t-56 57t-17 83.5q3 83 69.5 127.5t158.5 44.5q158 0 220 -109l-23 -9q-27 46 -80.5 70t-116.5 24q-82 0 -140 -36.5t-63 -111.5
q-4 -50 26 -86t74 -54.5t108 -31.5z" />
    <glyph glyph-name="Scaron" unicode="&#x160;" horiz-adv-x="578" 
d="M275 760l-86 94h29l71 -79l72 79h28l-86 -94h-28zM86 546q-4 -50 26 -86t74 -54.5t108 -31.5q50 -10 88 -23.5t74.5 -37t55 -61t14.5 -87.5q-6 -81 -75.5 -128t-162.5 -47q-70 0 -132.5 28.5t-100.5 85.5l23 10q34 -48 91 -74t121 -26q80 0 139.5 38.5t69.5 112.5
q3 45 -12.5 78t-49.5 53.5t-67 31.5t-82 22q-48 10 -82.5 22t-71.5 33.5t-56 57t-17 83.5q3 83 69.5 127.5t158.5 44.5q158 0 220 -109l-23 -9q-27 46 -80.5 70t-116.5 24q-82 0 -140 -36.5t-63 -111.5z" />
    <glyph glyph-name="scaron" unicode="&#x161;" horiz-adv-x="578" 
d="M275 760l-86 94h29l71 -79l72 79h28l-86 -94h-28zM86 546q-4 -50 26 -86t74 -54.5t108 -31.5q50 -10 88 -23.5t74.5 -37t55 -61t14.5 -87.5q-6 -81 -75.5 -128t-162.5 -47q-70 0 -132.5 28.5t-100.5 85.5l23 10q34 -48 91 -74t121 -26q80 0 139.5 38.5t69.5 112.5
q3 45 -12.5 78t-49.5 53.5t-67 31.5t-82 22q-48 10 -82.5 22t-71.5 33.5t-56 57t-17 83.5q3 83 69.5 127.5t158.5 44.5q158 0 220 -109l-23 -9q-27 46 -80.5 70t-116.5 24q-82 0 -140 -36.5t-63 -111.5z" />
    <glyph glyph-name="Tcommaaccent" unicode="&#x162;" horiz-adv-x="541" 
d="M519 708v-25h-236v-683h-25v683h-236v25h497zM290 -98l-61 -149h-22l50 149h33z" />
    <glyph glyph-name="tcommaaccent" unicode="&#x163;" horiz-adv-x="541" 
d="M519 708v-25h-236v-683h-25v683h-236v25h497zM290 -98l-61 -149h-22l50 149h33z" />
    <glyph glyph-name="Tcaron" unicode="&#x164;" horiz-adv-x="541" 
d="M257 760l-86 94h29l71 -79l72 79h28l-86 -94h-28zM519 708v-25h-236v-683h-25v683h-236v25h497z" />
    <glyph glyph-name="tcaron" unicode="&#x165;" horiz-adv-x="541" 
d="M257 760l-86 94h29l71 -79l72 79h28l-86 -94h-28zM519 708v-25h-236v-683h-25v683h-236v25h497z" />
    <glyph glyph-name="Tbar" unicode="&#x166;" horiz-adv-x="544" 
d="M284 360h96v-19h-96v-341h-25v341h-96v19h96v323h-236v25h497v-25h-236v-323z" />
    <glyph glyph-name="tbar" unicode="&#x167;" horiz-adv-x="544" 
d="M284 360h96v-19h-96v-341h-25v341h-96v19h96v323h-236v25h497v-25h-236v-323z" />
    <glyph glyph-name="Umacron" unicode="&#x16a;" horiz-adv-x="673" 
d="M238 786v21h197v-21h-197zM113 708v-514q0 -85 66 -132.5t157 -47.5q90 0 157 47.5t67 132.5v514h25v-514q0 -96 -74 -150t-175 -54q-100 0 -174 54t-74 150v514h25z" />
    <glyph glyph-name="umacron" unicode="&#x16b;" horiz-adv-x="673" 
d="M238 786v21h197v-21h-197zM113 708v-514q0 -85 66 -132.5t157 -47.5q90 0 157 47.5t67 132.5v514h25v-514q0 -96 -74 -150t-175 -54q-100 0 -174 54t-74 150v514h25z" />
    <glyph glyph-name="Uring" unicode="&#x16e;" horiz-adv-x="673" 
d="M262 830q0 37 22.5 57.5t55.5 20.5t54 -23.5t21 -55.5q0 -30 -22.5 -53.5t-52.5 -23.5q-33 0 -55.5 21.5t-22.5 56.5zM394 830q0 23 -16 40t-39 17q-24 0 -39 -15.5t-15 -42.5q0 -23 16 -39.5t38 -16.5q23 0 39 17t16 40zM113 708v-514q0 -85 66 -132.5t157 -47.5
q90 0 157 47.5t67 132.5v514h25v-514q0 -96 -74 -150t-175 -54q-100 0 -174 54t-74 150v514h25z" />
    <glyph glyph-name="uring" unicode="&#x16f;" horiz-adv-x="673" 
d="M262 830q0 37 22.5 57.5t55.5 20.5t54 -23.5t21 -55.5q0 -30 -22.5 -53.5t-52.5 -23.5q-33 0 -55.5 21.5t-22.5 56.5zM394 830q0 23 -16 40t-39 17q-24 0 -39 -15.5t-15 -42.5q0 -23 16 -39.5t38 -16.5q23 0 39 17t16 40zM113 708v-514q0 -85 66 -132.5t157 -47.5
q90 0 157 47.5t67 132.5v514h25v-514q0 -96 -74 -150t-175 -54q-100 0 -174 54t-74 150v514h25z" />
    <glyph glyph-name="Uhungarumlaut" unicode="&#x170;" horiz-adv-x="673" 
d="M334 866l-62 -110h-20l51 110h31zM474 866l-59 -110h-22l51 110h30zM113 708v-514q0 -85 66 -132.5t157 -47.5q90 0 157 47.5t67 132.5v514h25v-514q0 -96 -74 -150t-175 -54q-100 0 -174 54t-74 150v514h25z" />
    <glyph glyph-name="uhungarumlaut" unicode="&#x171;" horiz-adv-x="673" 
d="M334 866l-62 -110h-20l51 110h31zM474 866l-59 -110h-22l51 110h30zM113 708v-514q0 -85 66 -132.5t157 -47.5q90 0 157 47.5t67 132.5v514h25v-514q0 -96 -74 -150t-175 -54q-100 0 -174 54t-74 150v514h25z" />
    <glyph glyph-name="Uogonek" unicode="&#x172;" horiz-adv-x="673" 
d="M585 708v-515q0 -65 -37.5 -108.5t-98.5 -79.5q-39 -23 -71 -65.5t-19 -88.5q8 -27 35 -32.5t63 17.5l6 -15q-34 -30 -74 -24t-52 48q-21 73 68 153q-25 -8 -69 -8q-100 0 -174 54t-74 150v514h25v-514q0 -85 66 -132.5t157 -47.5q90 0 157 47.5t67 132.5v514h25z" />
    <glyph glyph-name="uogonek" unicode="&#x173;" horiz-adv-x="673" 
d="M585 708v-515q0 -65 -37.5 -108.5t-98.5 -79.5q-39 -23 -71 -65.5t-19 -88.5q8 -27 35 -32.5t63 17.5l6 -15q-34 -30 -74 -24t-52 48q-21 73 68 153q-25 -8 -69 -8q-100 0 -174 54t-74 150v514h25v-514q0 -85 66 -132.5t157 -47.5q90 0 157 47.5t67 132.5v514h25z" />
    <glyph glyph-name="Wcircumflex" unicode="&#x174;" horiz-adv-x="927" 
d="M563 755h-28l-72 79l-71 -79h-29l86 94h28zM874 708h27l-207 -708h-41l-189 578l-190 -578h-39l-210 708h27l201 -673h5l189 567h33l190 -569h6z" />
    <glyph glyph-name="wcircumflex" unicode="&#x175;" horiz-adv-x="927" 
d="M563 755h-28l-72 79l-71 -79h-29l86 94h28zM874 708h27l-207 -708h-41l-189 578l-190 -578h-39l-210 708h27l201 -673h5l189 567h33l190 -569h6z" />
    <glyph glyph-name="Ycircumflex" unicode="&#x176;" horiz-adv-x="550" 
d="M374 755h-28l-72 79l-71 -79h-29l86 94h28zM286 281v-281h-25v281l-242 427h30l225 -399l232 399h31z" />
    <glyph glyph-name="ycircumflex" unicode="&#x177;" horiz-adv-x="550" 
d="M374 755h-28l-72 79l-71 -79h-29l86 94h28zM286 281v-281h-25v281l-242 427h30l225 -399l232 399h31z" />
    <glyph glyph-name="Ydieresis" unicode="&#x178;" horiz-adv-x="550" 
d="M157 809q0 10 7 17t17 7t17 -7t7 -17t-7 -17t-17 -7t-17 7t-7 17zM337 809q0 10 7 17t17 7t17 -7t7 -17t-7 -17t-17 -7t-17 7t-7 17zM286 281v-281h-25v281l-242 427h30l225 -399l232 399h31z" />
    <glyph glyph-name="Zacute" unicode="&#x179;" horiz-adv-x="549" 
d="M324 862h35l-72 -103h-25zM49 686v22h460l9 -13l-455 -673h441v-22h-465l-10 12l455 674h-435z" />
    <glyph glyph-name="zacute" unicode="&#x17a;" horiz-adv-x="549" 
d="M324 862h35l-72 -103h-25zM49 686v22h460l9 -13l-455 -673h441v-22h-465l-10 12l455 674h-435z" />
    <glyph glyph-name="Zdotaccent" unicode="&#x17b;" horiz-adv-x="549" 
d="M259 804q0 12 8 20t19 8t19 -8t8 -20q0 -11 -8 -19t-19 -8t-19 8t-8 19zM49 686v22h460l9 -13l-455 -673h441v-22h-465l-10 12l455 674h-435z" />
    <glyph glyph-name="zdotaccent" unicode="&#x17c;" horiz-adv-x="549" 
d="M259 804q0 12 8 20t19 8t19 -8t8 -20q0 -11 -8 -19t-19 -8t-19 8t-8 19zM49 686v22h460l9 -13l-455 -673h441v-22h-465l-10 12l455 674h-435z" />
    <glyph glyph-name="Zcaron" unicode="&#x17d;" horiz-adv-x="549" 
d="M272 760l-86 94h29l71 -79l72 79h28l-86 -94h-28zM49 686v22h460l9 -13l-455 -673h441v-22h-465l-10 12l455 674h-435z" />
    <glyph glyph-name="zcaron" unicode="&#x17e;" horiz-adv-x="549" 
d="M272 760l-86 94h29l71 -79l72 79h28l-86 -94h-28zM49 686v22h460l9 -13l-455 -673h441v-22h-465l-10 12l455 674h-435z" />
    <glyph glyph-name="florin" unicode="&#x192;" horiz-adv-x="410" 
d="M393 708l-9 -21q-25 9 -40 9q-42 0 -66.5 -27.5t-31.5 -67.5l-36 -199h113l-4 -20h-114l-74 -399q-15 -58 -43 -84t-83 -26l4 24q80 0 98 85l72 400h-111l5 20h111l37 198v-1q25 119 123 119q22 0 49 -10z" />
    <glyph glyph-name="Scommaaccent" unicode="&#x218;" horiz-adv-x="578" 
d="M86 546q-4 -50 26 -86t74 -54.5t108 -31.5q50 -10 88 -23.5t74.5 -37t55 -61t14.5 -87.5q-6 -81 -75.5 -128t-162.5 -47q-70 0 -132.5 28.5t-100.5 85.5l23 10q34 -48 91 -74t121 -26q80 0 139.5 38.5t69.5 112.5q3 45 -12.5 78t-49.5 53.5t-67 31.5t-82 22
q-48 10 -82.5 22t-71.5 33.5t-56 57t-17 83.5q3 83 69.5 127.5t158.5 44.5q158 0 220 -109l-23 -9q-27 46 -80.5 70t-116.5 24q-82 0 -140 -36.5t-63 -111.5zM307 -100l-61 -149h-22l50 149h33z" />
    <glyph glyph-name="scommaaccent" unicode="&#x219;" horiz-adv-x="578" 
d="M86 546q-4 -50 26 -86t74 -54.5t108 -31.5q50 -10 88 -23.5t74.5 -37t55 -61t14.5 -87.5q-6 -81 -75.5 -128t-162.5 -47q-70 0 -132.5 28.5t-100.5 85.5l23 10q34 -48 91 -74t121 -26q80 0 139.5 38.5t69.5 112.5q3 45 -12.5 78t-49.5 53.5t-67 31.5t-82 22
q-48 10 -82.5 22t-71.5 33.5t-56 57t-17 83.5q3 83 69.5 127.5t158.5 44.5q158 0 220 -109l-23 -9q-27 46 -80.5 70t-116.5 24q-82 0 -140 -36.5t-63 -111.5zM307 -100l-61 -149h-22l50 149h33z" />
    <glyph glyph-name="uni021A" unicode="&#x21a;" horiz-adv-x="541" 
d="M519 708v-25h-236v-683h-25v683h-236v25h497zM290 -98l-61 -149h-22l50 149h33z" />
    <glyph glyph-name="uni021B" unicode="&#x21b;" horiz-adv-x="541" 
d="M519 708v-25h-236v-683h-25v683h-236v25h497zM290 -98l-61 -149h-22l50 149h33z" />
    <glyph glyph-name="circumflex" unicode="&#x2c6;" horiz-adv-x="280" 
d="M241 755h-28l-72 79l-71 -79h-29l86 94h28z" />
    <glyph glyph-name="caron" unicode="&#x2c7;" horiz-adv-x="278" 
d="M130 760l-86 94h29l71 -79l72 79h28l-86 -94h-28z" />
    <glyph glyph-name="uni02C9" unicode="&#x2c9;" horiz-adv-x="267" 
d="M24 783v24h237v-24h-237z" />
    <glyph glyph-name="breve" unicode="&#x2d8;" horiz-adv-x="608" 
d="M304 777q-35 0 -63 20t-37 57h23q8 -27 29.5 -41t47.5 -14t47.5 14t29.5 41h23q-9 -37 -37 -57t-63 -20z" />
    <glyph glyph-name="dotaccent" unicode="&#x2d9;" horiz-adv-x="240" 
d="M115 804q0 12 8 20t19 8t19 -8t8 -20q0 -11 -8 -19t-19 -8t-19 8t-8 19z" />
    <glyph glyph-name="ring" unicode="&#x2da;" horiz-adv-x="239" 
d="M27 830q0 37 22.5 57.5t55.5 20.5t54 -23.5t21 -55.5q0 -30 -22.5 -53.5t-52.5 -23.5q-33 0 -55.5 21.5t-22.5 56.5zM159 830q0 23 -16 40t-39 17q-24 0 -39 -15.5t-15 -42.5q0 -23 16 -39.5t38 -16.5q23 0 39 17t16 40z" />
    <glyph glyph-name="ogonek" unicode="&#x2db;" horiz-adv-x="229" 
d="M190 -164l6 -15q-34 -30 -74 -24t-52 48q-9 34 5.5 70t54.5 85h23q-44 -55 -56.5 -88.5t-4.5 -60.5q9 -27 35.5 -32.5t62.5 17.5z" />
    <glyph glyph-name="tilde" unicode="&#x2dc;" horiz-adv-x="271" 
d="M60 788l-15 6q19 49 60 49q21 0 53 -24t46 -24q26 0 39 32l16 -6q-16 -48 -55 -48q-20 0 -51.5 24.5t-48.5 24.5q-29 0 -44 -34z" />
    <glyph glyph-name="hungarumlaut" unicode="&#x2dd;" horiz-adv-x="239" 
d="M117 866l-62 -110h-20l51 110h31zM257 866l-59 -110h-22l51 110h30z" />
    <glyph glyph-name="uni0326" unicode="&#x326;" horiz-adv-x="0" 
d="M323 -98l-61 -149h-22l50 149h33z" />
    <glyph glyph-name="uni03A9" unicode="&#x3a9;" horiz-adv-x="766" 
d="M249 37l-36 30q-66 53 -106 132.5t-40 178.5q0 144 93 235.5t228 91.5q136 0 223 -94.5t87 -228.5q0 -104 -49.5 -195t-127.5 -150h190v-22h-241v12q86 52 144.5 150.5t58.5 204.5q0 115 -78.5 207.5t-206.5 92.5q-127 0 -211 -87t-84 -218q0 -211 205 -349v-12h-243v21
h194z" />
    <glyph glyph-name="uni03BC" unicode="&#x3bc;" horiz-adv-x="523" 
d="M421 0v137q-19 -71 -69 -104t-111 -33q-111 0 -138 96l1 -307h-22v729h23v-328q0 -42 10.5 -78t42.5 -64.5t83 -28.5q77 0 126 55.5t49 156.5v287h24l3 -518h-22z" />
    <glyph glyph-name="pi" unicode="&#x3c0;" horiz-adv-x="543" 
d="M480 18l1 -19q-51 0 -64.5 19t-13.5 88v387h-242v-486h-21v486q-57 0 -111 -14l-3 19q39 16 110 16h371l-1 -21h-81v-387q0 -23 0.5 -33t3 -23.5t8.5 -18.5t16.5 -9t26.5 -4z" />
    <glyph glyph-name="uni0401" unicode="&#x401;" horiz-adv-x="565" 
d="M190 809q0 10 7 17t17 7t17 -7t7 -17t-7 -17t-17 -7t-17 7t-7 17zM370 809q0 10 7 17t17 7t17 -7t7 -17t-7 -17t-17 -7t-17 7t-7 17zM118 683v-317h366v-27h-366v-314h396v-25h-421v708h421v-25h-396z" />
    <glyph glyph-name="uni0410" unicode="&#x410;" 
d="M139 253l-94 -253h-27l262 708h40l262 -708h-27l-94 253h-322zM302 684h-4l-150 -406h304z" />
    <glyph glyph-name="uni0411" unicode="&#x411;" horiz-adv-x="619" 
d="M522 685h-404v-292h242q214 0 211 -204q-3 -189 -220 -189h-258v708h429v-23zM118 369v-345h234q194 -3 194 166q0 179 -194 179h-234z" />
    <glyph glyph-name="uni0412" unicode="&#x412;" horiz-adv-x="627" 
d="M435 376l35 -12q54 -23 78 -71.5t23 -103.5q-4 -189 -220 -189h-258v708h259q81 0 133 -45.5t52 -126.5q0 -101 -71 -143zM118 387h234q73 0 117 37t44 111q0 72 -45 111t-116 39h-234v-298zM118 24h234q194 -3 194 166q0 175 -194 173h-234v-339z" />
    <glyph glyph-name="uni0413" unicode="&#x413;" horiz-adv-x="515" 
d="M493 683h-375v-683h-25v708h400v-25z" />
    <glyph glyph-name="uni0414" unicode="&#x414;" horiz-adv-x="677" 
d="M572 26h67v-183h-26v157h-576v-157h-26v183h25q34 4 59.5 27.5t41.5 58t28 94t18 118.5t12 148l16 236h361v-682zM235 682l-17 -260q-13 -188 -43.5 -282.5t-81.5 -113.5h453v656h-311z" />
    <glyph glyph-name="uni0415" unicode="&#x415;" horiz-adv-x="565" 
d="M118 683v-317h366v-27h-366v-314h396v-25h-421v708h421v-25h-396z" />
    <glyph glyph-name="uni0416" unicode="&#x416;" horiz-adv-x="863" 
d="M542 372l292 -372h-34l-276 352l-80 -89v-263h-25v263l-80 89l-276 -352h-34l292 372l-303 336l38 -1l363 -408v409h25v-409l363 408l38 1z" />
    <glyph glyph-name="uni0417" unicode="&#x417;" horiz-adv-x="533" 
d="M257 718q82 0 133.5 -47t51.5 -135q0 -57 -22.5 -92.5t-86.5 -67.5q89 -29 116.5 -73.5t26.5 -113.5q-2 -104 -61.5 -151.5t-158.5 -47.5q-150 0 -223 102l21 13q70 -91 203 -91q89 -2 141.5 42.5t52.5 133.5q0 175 -194 175h-87v21h87q73 0 117 37.5t44 111.5
q0 78 -45 119t-116 41q-120 0 -173 -74l-20 10q58 87 193 87z" />
    <glyph glyph-name="uni0418" unicode="&#x418;" horiz-adv-x="687" 
d="M594 0h-25v623l1 53h-1l-36 -54l-401 -622h-39v708h25v-615l-1 -69h1l43 66l399 618h34v-708z" />
    <glyph glyph-name="uni0419" unicode="&#x419;" horiz-adv-x="687" 
d="M469 921h25q-9 -58 -48.5 -94.5t-100.5 -36.5t-100.5 36.5t-48.5 94.5h25q23 -106 124 -106t124 106zM594 0h-25v624l1 52h-1l-34 -52l-403 -624h-39v708h25v-597l-1 -87h1l52 80l389 604h35v-708z" />
    <glyph glyph-name="uni041A" unicode="&#x41a;" horiz-adv-x="591" 
d="M118 708v-430l419 430h32l-327 -341l327 -367h-29l-316 349l-106 -106v-243h-25v708h25z" />
    <glyph glyph-name="uni041B" unicode="&#x41b;" horiz-adv-x="660" 
d="M567 0h-25v683h-309l-20 -282q-3 -49 -6 -80.5t-10 -78.5t-16 -77t-24.5 -64.5t-35.5 -54t-49.5 -33t-65.5 -13.5v25q41 0 72 22.5t49.5 56t31.5 86.5t19 100.5t10 112.5l22 305h357v-708z" />
    <glyph glyph-name="uni041C" unicode="&#x41c;" horiz-adv-x="797" 
d="M382 112l-255 571l-9 -1v-682h-25v708h53l253 -573l252 573h53v-708h-25v690h-9l-254 -578h-34z" />
    <glyph glyph-name="uni041D" unicode="&#x41d;" horiz-adv-x="683" 
d="M118 341v-341h-25v708h25v-342h447v342h25v-708h-25v341h-447z" />
    <glyph glyph-name="uni041E" unicode="&#x41e;" horiz-adv-x="682" 
d="M77 191v327q0 94 78 147t185 53t185.5 -53t78.5 -147v-327q0 -94 -78.5 -147.5t-185.5 -53.5t-185 53.5t-78 147.5zM102 518v-327q0 -84 70.5 -130t167.5 -46t168 46.5t71 129.5v327q0 87 -70.5 131.5t-169.5 44.5q-98 -1 -167.5 -45.5t-69.5 -130.5z" />
    <glyph glyph-name="uni041F" unicode="&#x41f;" horiz-adv-x="675" 
d="M118 683v-683h-25v708h489v-708h-25v683h-439z" />
    <glyph glyph-name="uni0420" unicode="&#x420;" horiz-adv-x="602" 
d="M118 0h-25v708h250q102 -1 159.5 -65.5t57.5 -149.5q0 -84 -57 -147t-159 -64h-226v-282zM118 307h225q92 0 142 55.5t50 131.5t-51 133t-141 58h-225v-378z" />
    <glyph glyph-name="uni0421" unicode="&#x421;" horiz-adv-x="584" 
d="M78 188v332q0 92 75 145t176 53q70 0 130 -26.5t90 -75.5l-22 -16q-27 44 -82.5 69t-118.5 25q-89 0 -156 -48.5t-67 -130.5v-327q0 -82 66.5 -127.5t156.5 -45.5q63 0 118 23t83 66l22 -11q-30 -49 -91.5 -76t-131.5 -27q-100 0 -174 52.5t-74 145.5z" />
    <glyph glyph-name="uni0422" unicode="&#x422;" horiz-adv-x="541" 
d="M519 708v-25h-236v-683h-25v683h-236v25h497z" />
    <glyph glyph-name="uni0423" unicode="&#x423;" horiz-adv-x="506" 
d="M175 0h-29l99 216l-242 492h32l173 -357l51 -104h1l43 97l164 364h29z" />
    <glyph glyph-name="uni0424" unicode="&#x424;" horiz-adv-x="725" 
d="M375 708v-86q61 0 108.5 -7t91 -24.5t67 -52t23.5 -85.5v-198q0 -51 -23.5 -85.5t-67 -52t-91 -24.5t-108.5 -7v-86h-25v86q-61 0 -108.5 7t-91 24.5t-67 52t-23.5 85.5v198q0 51 23.5 85.5t67 52t91 24.5t108.5 7v86h25zM350 111v486q-265 0 -265 -144v-198
q0 -144 265 -144zM375 597v-486q265 0 265 144v198q0 144 -265 144z" />
    <glyph glyph-name="uni0425" unicode="&#x425;" horiz-adv-x="547" 
d="M291 355l229 -355h-29l-217 336l-217 -336h-31l233 353l-232 355h28l219 -332l218 332h29z" />
    <glyph glyph-name="uni0426" unicode="&#x426;" horiz-adv-x="679" 
d="M574 26h67v-183h-26v157h-523v708h25v-682h431v682h26v-682z" />
    <glyph glyph-name="uni0427" unicode="&#x427;" horiz-adv-x="604" 
d="M511 0h-25v342q-90 -99 -209 -99q-95 0 -157 53t-62 153v259h25v-259q0 -87 57.5 -134t136.5 -47q68 0 116.5 27t92.5 79v334h25v-708z" />
    <glyph glyph-name="uni0428" unicode="&#x428;" horiz-adv-x="881" 
d="M788 0h-695v708h25v-683h310v683h25v-683h310v683h25v-708z" />
    <glyph glyph-name="uni0429" unicode="&#x429;" horiz-adv-x="892" 
d="M787 26h66v-183h-25v157h-737v708h25v-682h310v682h25v-682h310v682h26v-682z" />
    <glyph glyph-name="uni042A" unicode="&#x42a;" horiz-adv-x="677" 
d="M185 406h236q107 0 159.5 -52.5t51.5 -164.5q-3 -189 -220 -189h-252v684h-136v24h161v-302zM185 382v-358h228q194 0 194 166q0 192 -194 192h-228z" />
    <glyph glyph-name="uni042B" unicode="&#x42b;" horiz-adv-x="810" 
d="M118 406h236q107 0 159.5 -52.5t51.5 -164.5q-3 -189 -220 -189h-252v708h25v-302zM717 0h-25v708h25v-708zM118 382v-358h228q194 0 194 166q0 192 -194 192h-228z" />
    <glyph glyph-name="uni042C" unicode="&#x42c;" horiz-adv-x="610" 
d="M118 406h236q107 0 159.5 -52.5t51.5 -164.5q-3 -189 -220 -189h-252v708h25v-302zM118 382v-358h228q194 0 194 166q0 192 -194 192h-228z" />
    <glyph glyph-name="uni042D" unicode="&#x42d;" horiz-adv-x="595" 
d="M267 718q106 0 178 -52.5t72 -145.5v-332q0 -93 -74 -145.5t-174 -52.5q-70 0 -131.5 27t-91.5 76l22 11q28 -43 83 -66t118 -23q90 0 156.5 45.5t66.5 127.5v153h-338v27h338v152q0 82 -66.5 128t-156.5 46q-63 0 -119 -25t-83 -69l-21 16q30 49 90.5 75.5t130.5 26.5z
" />
    <glyph glyph-name="uni042E" unicode="&#x42e;" horiz-adv-x="919" 
d="M582 718q69 0 127.5 -20.5t97.5 -67.5t39 -112v-326q0 -96 -78 -148.5t-186 -52.5t-185.5 52.5t-77.5 148.5v152h-203v-344h-25v708h25v-339h203v149q0 96 77.5 148t185.5 52zM581 694q-98 -1 -167.5 -45.5t-69.5 -130.5v-326q0 -84 70.5 -130t167.5 -46t168 46.5
t71 129.5v326q0 87 -70.5 131.5t-169.5 44.5z" />
    <glyph glyph-name="uni042F" unicode="&#x42f;" horiz-adv-x="621" 
d="M528 0h-25l2 309h-168l-268 -309h-32l268 309q-108 0 -178.5 45.5t-70.5 143.5q0 91 58 150.5t175 59.5h239v-708zM503 684h-222q-101 0 -150.5 -53.5t-49.5 -132.5q0 -55 34.5 -94t81 -55t97.5 -16h211z" />
    <glyph glyph-name="uni0430" unicode="&#x430;" 
d="M139 253l-94 -253h-27l262 708h40l262 -708h-27l-94 253h-322zM302 684h-4l-150 -406h304z" />
    <glyph glyph-name="uni0431" unicode="&#x431;" horiz-adv-x="619" 
d="M522 685h-404v-292h242q214 0 211 -204q-3 -189 -220 -189h-258v708h429v-23zM118 369v-345h234q194 -3 194 166q0 179 -194 179h-234z" />
    <glyph glyph-name="uni0432" unicode="&#x432;" horiz-adv-x="627" 
d="M435 376l35 -12q54 -23 78 -71.5t23 -103.5q-4 -189 -220 -189h-258v708h259q81 0 133 -45.5t52 -126.5q0 -101 -71 -143zM118 387h234q73 0 117 37t44 111q0 72 -45 111t-116 39h-234v-298zM118 24h234q194 -3 194 166q0 175 -194 173h-234v-339z" />
    <glyph glyph-name="uni0433" unicode="&#x433;" horiz-adv-x="515" 
d="M493 683h-375v-683h-25v708h400v-25z" />
    <glyph glyph-name="uni0434" unicode="&#x434;" horiz-adv-x="670" 
d="M584 26h67v-183h-26v157h-580v-157h-26v183h67l230 682h37zM113 26h445l-224 658z" />
    <glyph glyph-name="uni0435" unicode="&#x435;" horiz-adv-x="565" 
d="M118 683v-317h366v-27h-366v-314h396v-25h-421v708h421v-25h-396z" />
    <glyph glyph-name="uni0436" unicode="&#x436;" horiz-adv-x="863" 
d="M542 372l292 -372h-34l-276 352l-80 -89v-263h-25v263l-80 89l-276 -352h-34l292 372l-303 336l38 -1l363 -408v409h25v-409l363 408l38 1z" />
    <glyph glyph-name="uni0437" unicode="&#x437;" horiz-adv-x="533" 
d="M257 718q82 0 133.5 -47t51.5 -135q0 -57 -22.5 -92.5t-86.5 -67.5q89 -29 116.5 -73.5t26.5 -113.5q-2 -104 -61.5 -151.5t-158.5 -47.5q-150 0 -223 102l21 13q70 -91 203 -91q89 -2 141.5 42.5t52.5 133.5q0 175 -194 175h-87v21h87q73 0 117 37.5t44 111.5
q0 78 -45 119t-116 41q-120 0 -173 -74l-20 10q58 87 193 87z" />
    <glyph glyph-name="uni0438" unicode="&#x438;" horiz-adv-x="687" 
d="M594 0h-25v623l1 53h-1l-36 -54l-401 -622h-39v708h25v-615l-1 -69h1l43 66l399 618h34v-708z" />
    <glyph glyph-name="uni0439" unicode="&#x439;" horiz-adv-x="687" 
d="M469 921h25q-9 -58 -48.5 -94.5t-100.5 -36.5t-100.5 36.5t-48.5 94.5h25q23 -106 124 -106t124 106zM594 0h-25v624l1 52h-1l-34 -52l-403 -624h-39v708h25v-597l-1 -87h1l52 80l389 604h35v-708z" />
    <glyph glyph-name="uni043A" unicode="&#x43a;" horiz-adv-x="591" 
d="M118 708v-430l419 430h32l-327 -341l327 -367h-29l-316 349l-106 -106v-243h-25v708h25z" />
    <glyph glyph-name="uni043B" unicode="&#x43b;" horiz-adv-x="588" 
d="M569 0h-28l-194 553l-52 142h-5l-51 -146l-193 -549h-27l251 708h47z" />
    <glyph glyph-name="uni043C" unicode="&#x43c;" horiz-adv-x="797" 
d="M382 112l-255 571l-9 -1v-682h-25v708h53l253 -573l252 573h53v-708h-25v690h-9l-254 -578h-34z" />
    <glyph glyph-name="uni043D" unicode="&#x43d;" horiz-adv-x="683" 
d="M118 341v-341h-25v708h25v-342h447v342h25v-708h-25v341h-447z" />
    <glyph glyph-name="uni043E" unicode="&#x43e;" horiz-adv-x="682" 
d="M77 191v327q0 94 78 147t185 53t185.5 -53t78.5 -147v-327q0 -94 -78.5 -147.5t-185.5 -53.5t-185 53.5t-78 147.5zM102 518v-327q0 -84 70.5 -130t167.5 -46t168 46.5t71 129.5v327q0 87 -70.5 131.5t-169.5 44.5q-98 -1 -167.5 -45.5t-69.5 -130.5z" />
    <glyph glyph-name="uni043F" unicode="&#x43f;" horiz-adv-x="675" 
d="M118 683v-683h-25v708h489v-708h-25v683h-439z" />
    <glyph glyph-name="uni0440" unicode="&#x440;" horiz-adv-x="602" 
d="M118 0h-25v708h250q102 -1 159.5 -65.5t57.5 -149.5q0 -84 -57 -147t-159 -64h-226v-282zM118 307h225q92 0 142 55.5t50 131.5t-51 133t-141 58h-225v-378z" />
    <glyph glyph-name="uni0441" unicode="&#x441;" horiz-adv-x="584" 
d="M78 188v332q0 92 75 145t176 53q70 0 130 -26.5t90 -75.5l-22 -16q-27 44 -82.5 69t-118.5 25q-89 0 -156 -48.5t-67 -130.5v-327q0 -82 66.5 -127.5t156.5 -45.5q63 0 118 23t83 66l22 -11q-30 -49 -91.5 -76t-131.5 -27q-100 0 -174 52.5t-74 145.5z" />
    <glyph glyph-name="uni0442" unicode="&#x442;" horiz-adv-x="541" 
d="M519 708v-25h-236v-683h-25v683h-236v25h497z" />
    <glyph glyph-name="uni0443" unicode="&#x443;" horiz-adv-x="506" 
d="M175 0h-29l99 216l-242 492h32l173 -357l51 -104h1l43 97l164 364h29z" />
    <glyph glyph-name="uni0444" unicode="&#x444;" horiz-adv-x="725" 
d="M375 708v-86q61 0 108.5 -7t91 -24.5t67 -52t23.5 -85.5v-198q0 -51 -23.5 -85.5t-67 -52t-91 -24.5t-108.5 -7v-86h-25v86q-61 0 -108.5 7t-91 24.5t-67 52t-23.5 85.5v198q0 51 23.5 85.5t67 52t91 24.5t108.5 7v86h25zM350 111v486q-265 0 -265 -144v-198
q0 -144 265 -144zM375 597v-486q265 0 265 144v198q0 144 -265 144z" />
    <glyph glyph-name="uni0445" unicode="&#x445;" horiz-adv-x="547" 
d="M291 355l229 -355h-29l-217 336l-217 -336h-31l233 353l-232 355h28l219 -332l218 332h29z" />
    <glyph glyph-name="uni0446" unicode="&#x446;" horiz-adv-x="679" 
d="M574 26h67v-183h-26v157h-523v708h25v-682h431v682h26v-682z" />
    <glyph glyph-name="uni0447" unicode="&#x447;" horiz-adv-x="604" 
d="M511 0h-25v342q-90 -99 -209 -99q-95 0 -157 53t-62 153v259h25v-259q0 -87 57.5 -134t136.5 -47q68 0 116.5 27t92.5 79v334h25v-708z" />
    <glyph glyph-name="uni0448" unicode="&#x448;" horiz-adv-x="881" 
d="M788 0h-695v708h25v-683h310v683h25v-683h310v683h25v-708z" />
    <glyph glyph-name="uni0449" unicode="&#x449;" horiz-adv-x="892" 
d="M787 26h66v-183h-25v157h-737v708h25v-682h310v682h25v-682h310v682h26v-682z" />
    <glyph glyph-name="uni044A" unicode="&#x44a;" horiz-adv-x="677" 
d="M185 406h236q107 0 159.5 -52.5t51.5 -164.5q-3 -189 -220 -189h-252v684h-136v24h161v-302zM185 382v-358h228q194 0 194 166q0 192 -194 192h-228z" />
    <glyph glyph-name="uni044B" unicode="&#x44b;" horiz-adv-x="810" 
d="M118 406h236q107 0 159.5 -52.5t51.5 -164.5q-3 -189 -220 -189h-252v708h25v-302zM717 0h-25v708h25v-708zM118 382v-358h228q194 0 194 166q0 192 -194 192h-228z" />
    <glyph glyph-name="uni044C" unicode="&#x44c;" horiz-adv-x="610" 
d="M118 406h236q107 0 159.5 -52.5t51.5 -164.5q-3 -189 -220 -189h-252v708h25v-302zM118 382v-358h228q194 0 194 166q0 192 -194 192h-228z" />
    <glyph glyph-name="uni044D" unicode="&#x44d;" horiz-adv-x="595" 
d="M267 718q106 0 178 -52.5t72 -145.5v-332q0 -93 -74 -145.5t-174 -52.5q-70 0 -131.5 27t-91.5 76l22 11q28 -43 83 -66t118 -23q90 0 156.5 45.5t66.5 127.5v153h-338v27h338v152q0 82 -66.5 128t-156.5 46q-63 0 -119 -25t-83 -69l-21 16q30 49 90.5 75.5t130.5 26.5z
" />
    <glyph glyph-name="uni044E" unicode="&#x44e;" horiz-adv-x="919" 
d="M582 718q69 0 127.5 -20.5t97.5 -67.5t39 -112v-326q0 -96 -78 -148.5t-186 -52.5t-185.5 52.5t-77.5 148.5v152h-203v-344h-25v708h25v-339h203v149q0 96 77.5 148t185.5 52zM581 694q-98 -1 -167.5 -45.5t-69.5 -130.5v-326q0 -84 70.5 -130t167.5 -46t168 46.5
t71 129.5v326q0 87 -70.5 131.5t-169.5 44.5z" />
    <glyph glyph-name="uni044F" unicode="&#x44f;" horiz-adv-x="621" 
d="M528 0h-25l2 309h-168l-268 -309h-32l268 309q-108 0 -178.5 45.5t-70.5 143.5q0 91 58 150.5t175 59.5h239v-708zM503 684h-222q-101 0 -150.5 -53.5t-49.5 -132.5q0 -55 34.5 -94t81 -55t97.5 -16h211z" />
    <glyph glyph-name="uni0451" unicode="&#x451;" horiz-adv-x="565" 
d="M190 809q0 10 7 17t17 7t17 -7t7 -17t-7 -17t-17 -7t-17 7t-7 17zM370 809q0 10 7 17t17 7t17 -7t7 -17t-7 -17t-17 -7t-17 7t-7 17zM118 683v-317h366v-27h-366v-314h396v-25h-421v708h421v-25h-396z" />
    <glyph glyph-name="Wgrave" unicode="&#x1e80;" horiz-adv-x="927" 
d="M457 759l-72 103h35l62 -103h-25zM874 708h27l-207 -708h-41l-189 578l-190 -578h-39l-210 708h27l201 -673h5l189 567h33l190 -569h6z" />
    <glyph glyph-name="wgrave" unicode="&#x1e81;" horiz-adv-x="927" 
d="M457 759l-72 103h35l62 -103h-25zM874 708h27l-207 -708h-41l-189 578l-190 -578h-39l-210 708h27l201 -673h5l189 567h33l190 -569h6z" />
    <glyph glyph-name="Wacute" unicode="&#x1e82;" horiz-adv-x="927" 
d="M501 862h35l-72 -103h-25zM874 708h27l-207 -708h-41l-189 578l-190 -578h-39l-210 708h27l201 -673h5l189 567h33l190 -569h6z" />
    <glyph glyph-name="wacute" unicode="&#x1e83;" horiz-adv-x="927" 
d="M501 862h35l-72 -103h-25zM874 708h27l-207 -708h-41l-189 578l-190 -578h-39l-210 708h27l201 -673h5l189 567h33l190 -569h6z" />
    <glyph glyph-name="Wdieresis" unicode="&#x1e84;" horiz-adv-x="927" 
d="M346 809q0 10 7 17t17 7t17 -7t7 -17t-7 -17t-17 -7t-17 7t-7 17zM526 809q0 10 7 17t17 7t17 -7t7 -17t-7 -17t-17 -7t-17 7t-7 17zM874 708h27l-207 -708h-41l-189 578l-190 -578h-39l-210 708h27l201 -673h5l189 567h33l190 -569h6z" />
    <glyph glyph-name="wdieresis" unicode="&#x1e85;" horiz-adv-x="927" 
d="M346 809q0 10 7 17t17 7t17 -7t7 -17t-7 -17t-17 -7t-17 7t-7 17zM526 809q0 10 7 17t17 7t17 -7t7 -17t-7 -17t-17 -7t-17 7t-7 17zM874 708h27l-207 -708h-41l-189 578l-190 -578h-39l-210 708h27l201 -673h5l189 567h33l190 -569h6z" />
    <glyph glyph-name="Ygrave" unicode="&#x1ef2;" horiz-adv-x="550" 
d="M268 759l-72 103h35l62 -103h-25zM286 281v-281h-25v281l-242 427h30l225 -399l232 399h31z" />
    <glyph glyph-name="ygrave" unicode="&#x1ef3;" horiz-adv-x="550" 
d="M268 759l-72 103h35l62 -103h-25zM286 281v-281h-25v281l-242 427h30l225 -399l232 399h31z" />
    <glyph glyph-name="endash" unicode="&#x2013;" horiz-adv-x="582" 
d="M506 311v-23h-430v23h430z" />
    <glyph glyph-name="emdash" unicode="&#x2014;" horiz-adv-x="1014" 
d="M938 311v-23h-862v23h862z" />
    <glyph glyph-name="quoteleft" unicode="&#x2018;" horiz-adv-x="201" 
d="M65 532l55 176h25l-45 -176h-35z" />
    <glyph glyph-name="quoteright" unicode="&#x2019;" horiz-adv-x="201" 
d="M151 708l-63 -177h-22l48 177h37z" />
    <glyph glyph-name="quotesinglbase" unicode="&#x201a;" horiz-adv-x="187" 
d="M116 33l-67 -154h-23l52 154h38z" />
    <glyph glyph-name="quotedblleft" unicode="&#x201c;" horiz-adv-x="314" 
d="M101 532h-36q11 33 31 92t29 85h23zM212 532h-36q11 33 31 92t29 85h23z" />
    <glyph glyph-name="quotedblright" unicode="&#x201d;" horiz-adv-x="306" 
d="M105 708h35q-8 -28 -26 -90l-27 -93h-21zM217 708h35q-8 -28 -26 -90l-27 -93h-21z" />
    <glyph glyph-name="quotedblbase" unicode="&#x201e;" horiz-adv-x="321" 
d="M117 34l-66 -155h-23l52 155h37zM247 34l-70 -155h-23l52 155h41z" />
    <glyph glyph-name="dagger" unicode="&#x2020;" horiz-adv-x="481" 
d="M37 486v21h191v202h22v-202h194v-21h-194v-600h-22v600h-191z" />
    <glyph glyph-name="daggerdbl" unicode="&#x2021;" horiz-adv-x="552" 
d="M73 87v20h192v389h-192v22h192v191h22v-191h192v-22h-192v-389h192v-20h-192v-196h-22v196h-192z" />
    <glyph glyph-name="bullet" unicode="&#x2022;" horiz-adv-x="364" 
d="M91 354q0 38 26.5 64.5t64.5 26.5t64.5 -26.5t26.5 -64.5t-26.5 -64.5t-64.5 -26.5t-64.5 26.5t-26.5 64.5z" />
    <glyph glyph-name="ellipsis" unicode="&#x2026;" horiz-adv-x="609" 
d="M470 32q0 13 9 22t22 9t22 -9t9 -22t-9 -22t-22 -9t-22 9t-9 22zM271 30q0 13 9 22t22 9t22 -9t9 -22t-9 -22t-22 -9t-22 9t-9 22zM77 29q0 13 9 22t22 9t22 -9t9 -22t-9 -22t-22 -9t-22 9t-9 22z" />
    <glyph glyph-name="perthousand" unicode="&#x2030;" horiz-adv-x="1023" 
d="M614 731l-491 -779q-5 2 -11.5 7t-9.5 6l492 778zM324 525q0 -83 -38.5 -131.5t-99.5 -48.5q-66 0 -102 47t-36 135q0 85 38 132t100 47q65 0 101.5 -47.5t36.5 -133.5zM296 525q0 155 -111 155q-108 0 -108 -153q0 -82 26 -118.5t83 -36.5q110 0 110 153zM666 173
q0 -83 -38.5 -131.5t-99.5 -48.5q-66 0 -102 47t-36 135q0 87 38 133t100 46q65 0 101.5 -47.5t36.5 -133.5zM981 173q0 -83 -38.5 -131.5t-99.5 -48.5q-66 0 -102 47t-36 135q0 87 38 133t100 46q65 0 101.5 -47.5t36.5 -133.5zM638 172q0 155 -112 155q-110 0 -110 -152
q0 -82 27 -118.5t84 -36.5q111 0 111 152zM953 172q0 155 -112 155q-110 0 -110 -152q0 -82 27 -118.5t84 -36.5q111 0 111 152z" />
    <glyph glyph-name="guilsinglleft" unicode="&#x2039;" horiz-adv-x="254" 
d="M46 295l122 181q1 0 9.5 -4.5t10.5 -6.5q1 -1 -114 -170q46 -68 115 -168l-21 -11z" />
    <glyph glyph-name="guilsinglright" unicode="&#x203a;" horiz-adv-x="255" 
d="M208 295l-122 -181q-1 0 -9 4.5t-10 6.5q-1 1 114 170q-99 144 -115 168l20 11z" />
    <glyph glyph-name="fraction" unicode="&#x2044;" horiz-adv-x="493" 
d="M476 708l-440 -719l-19 9l438 720z" />
    <glyph glyph-name="Euro" unicode="&#x20ac;" horiz-adv-x="596" 
d="M107 411v106q0 94 68.5 147.5t160.5 53.5q63 0 118 -27t86 -77l-21 -12q-26 44 -77 68.5t-106 24.5q-84 0 -144.5 -46.5t-60.5 -131.5v-106h271l-5 -22h-266v-82h274l-5 -21h-269v-96q0 -83 60 -130t142 -47q57 0 107 24t81 69l19 -12q-31 -50 -87 -77t-120 -27
q-91 0 -158.5 53t-67.5 147v96h-61l4 21h57v82h-57l5 22h52z" />
    <glyph glyph-name="uni2113" unicode="&#x2113;" horiz-adv-x="378" 
d="M331 53l13 -16q-47 -42 -102 -42q-70 0 -102 45t-34 133v61l-65 -65l-6 19l71 72v282q0 117 35.5 168t86.5 51q47 0 71.5 -36.5t24.5 -103.5q0 -169 -197 -371v-70q1 -92 31.5 -128t86.5 -36q42 0 86 37zM129 544l-1 -269q86 101 130 182.5t44 161.5q0 56 -16 87.5
t-61 31.5q-40 0 -68 -45.5t-28 -148.5z" />
    <glyph glyph-name="trademark" unicode="&#x2122;" horiz-adv-x="824" 
d="M187 352h-18v341h-130v15h278v-15h-130v-341zM416 694v-342h-17v356h32l139 -299q45 100 77 167.5t44.5 94t17.5 37.5h32v-356h-18l1 345h-3l-139 -299h-24l-138 296h-4z" />
    <glyph glyph-name="Omega" unicode="&#x2126;" horiz-adv-x="768" 
d="M250 37l-36 30q-66 53 -106 132.5t-40 178.5q0 144 93 235.5t228 91.5q136 0 223 -94.5t87 -228.5q0 -104 -49.5 -195t-127.5 -150h190v-22h-241v12q86 52 144.5 150.5t58.5 204.5q0 115 -78.5 207.5t-206.5 92.5q-127 0 -211 -87t-84 -218q0 -211 205 -349v-12h-243v21
h194z" />
    <glyph glyph-name="estimated" unicode="&#x212e;" horiz-adv-x="913" 
d="M871 344h-658q-5 0 -5 -5v-199q0 -12 8 -23q105 -108 249 -108q77 0 145 32.5t117 88.5h59q-56 -65 -141 -103t-181 -38q-168 0 -287 107t-119 258t119 258.5t287 107.5q169 0 288 -107t119 -259v-10zM722 370v200q0 14 -10 24q-106 104 -247 104q-143 0 -248 -107
q-9 -11 -9 -25v-196q0 -7 5 -7h505q4 0 4 7z" />
    <glyph glyph-name="partialdiff" unicode="&#x2202;" horiz-adv-x="502" 
d="M97 679l-9 20q58 39 133 39q99 0 159 -91t60 -235q0 -70 -9 -131q-21 -131 -75.5 -207.5t-142.5 -76.5q-76 0 -120 61t-44 145q0 102 56.5 168t131.5 66q58 0 107 -34t65 -82q8 37 8 99q-1 122 -53 207.5t-148 85.5q-67 0 -119 -34zM214 22h1q75 0 131 79t58 187
q-14 44 -61.5 84t-104.5 40q-67 0 -116 -60.5t-49 -146.5q0 -82 39.5 -132.5t101.5 -50.5z" />
    <glyph glyph-name="Delta" unicode="&#x2206;" horiz-adv-x="568" 
d="M29 0v24q39 113 117.5 342t117.5 342h42l233 -683v-25h-510zM55 22h455l-222 666h-6z" />
    <glyph glyph-name="product" unicode="&#x220f;" horiz-adv-x="625" 
d="M494 -53h-23v739h-315v-739h-24v739h-102v22h566v-22h-102v-739z" />
    <glyph glyph-name="summation" unicode="&#x2211;" horiz-adv-x="523" 
d="M38 -52l271 359q-43 60 -129.5 189t-129.5 189v23h415v-22h-385q60 -88 259 -375l-273 -364h415v-21h-443v22z" />
    <glyph glyph-name="minus" unicode="&#x2212;" horiz-adv-x="632" 
d="M554 318v-22h-476v22h476z" />
    <glyph glyph-name="uni2215" unicode="&#x2215;" horiz-adv-x="493" 
d="M475 708l-439 -728l-19 9l439 729z" />
    <glyph glyph-name="uni2219" unicode="&#x2219;" horiz-adv-x="214" 
d="M76 318q0 13 9 22t22 9t22 -9t9 -22t-9 -22t-22 -9t-22 9t-9 22z" />
    <glyph glyph-name="radical" unicode="&#x221a;" horiz-adv-x="505" 
d="M251 -137l-150 469l-72 -26q-2 5 -5 11l-4 8l96 35l145 -457l5 1l190 916h24l-202 -957h-27z" />
    <glyph glyph-name="infinity" unicode="&#x221e;" horiz-adv-x="744" 
d="M679 293v-1q0 -60 -40 -98.5t-94 -38.5q-37 0 -76.5 28t-96.5 90q-35 -39 -56 -59t-55.5 -39.5t-66.5 -19.5q-53 0 -91 39.5t-38 94.5q0 59 36.5 98.5t94.5 39.5q31 0 65 -19.5t55.5 -40t56.5 -58.5l20 23v-1q28 31 46.5 48t49.5 33t63 16q56 -1 91.5 -38.5t35.5 -96.5z
M199 175h1q57 0 140 90l22 22q-29 35 -50 56t-55 42.5t-65 21.5q-48 0 -77.5 -35t-29.5 -84q1 -48 32.5 -80.5t81.5 -32.5zM547 407h-1q-58 0 -137 -86l-28 -29q62 -66 95.5 -91.5t71.5 -25.5q49 0 79 34.5t30 79.5q0 55 -31 86.5t-79 31.5z" />
    <glyph glyph-name="integral" unicode="&#x222b;" horiz-adv-x="306" 
d="M284 842l-3 -20q-27 9 -39 9q-39 0 -62 -33.5t-22 -89.5l5 -265q8 -338 8 -457q0 -61 -31 -93.5t-77 -32.5q-25 0 -42 6l3 22q30 -6 31 -6q92 0 92 105q0 83 -6 369q-6 282 -6 358q0 63 30.5 101t72.5 38q22 0 46 -11z" />
    <glyph glyph-name="approxequal" unicode="&#x2248;" horiz-adv-x="529" 
d="M437 371l14 -10q-35 -45 -86 -45q-33 0 -100 37t-98 37q-45 0 -75 -41l-14 10q38 52 91 52q40 0 86 -27l16 -9q65 -37 97 -37q42 0 69 33zM437 240l13 -10q-35 -45 -86 -45q-32 0 -99 37t-98 37q-45 0 -75 -41l-14 10q39 53 92 53q38 0 85 -28l16 -9q65 -37 97 -37
q42 0 69 33z" />
    <glyph glyph-name="notequal" unicode="&#x2260;" horiz-adv-x="557" 
d="M482 385v-19h-161l-72 -160h233v-19h-241l-50 -107l-15 7l46 100h-147v19h155l72 160h-227v19h235l47 106l16 -6l-46 -100h155z" />
    <glyph glyph-name="lessequal" unicode="&#x2264;" horiz-adv-x="485" 
d="M96 367l305 -167v-23q-54 31 -159 89t-159 88v26l318 181v-24zM69 94h345v-20h-345v20z" />
    <glyph glyph-name="greaterequal" unicode="&#x2265;" horiz-adv-x="487" 
d="M84 537v24q54 -31 159.5 -90t159.5 -91v-26l-319 -177v23l305 167q-19 10 -133 74t-172 96zM71 94h345v-19h-345v19z" />
    <glyph glyph-name="lozenge" unicode="&#x25ca;" horiz-adv-x="509" 
d="M233 -15l-203 370l78 141q24 45 71 127.5t58 102.5h38q34 -62 102.5 -185t102.5 -185l-208 -371h-39zM59 357l193 -361l199 359l-197 363z" />
    <glyph glyph-name="i.loclTRK" horiz-adv-x="211" 
d="M118 708v-708h-25v708h25z" />
    <glyph glyph-name="uni0414.loclBGR" horiz-adv-x="670" 
d="M584 26h67v-183h-26v157h-580v-157h-26v183h67l230 682h37zM113 26h445l-224 658z" />
    <glyph glyph-name="uni041B.loclBGR" horiz-adv-x="588" 
d="M569 0h-28l-194 553l-52 142h-5l-51 -146l-193 -549h-27l251 708h47z" />
    <glyph glyph-name="uni0432.loclBGR" horiz-adv-x="627" 
d="M435 376l35 -12q54 -23 78 -71.5t23 -103.5q-4 -189 -220 -189h-258v708h259q81 0 133 -45.5t52 -126.5q0 -101 -71 -143zM118 387h234q73 0 117 37t44 111q0 72 -45 111t-116 39h-234v-298zM118 24h234q194 -3 194 166q0 175 -194 173h-234v-339z" />
    <glyph glyph-name="uni0433.loclBGR" horiz-adv-x="515" 
d="M493 683h-375v-683h-25v708h400v-25z" />
    <glyph glyph-name="uni0434.loclBGR" horiz-adv-x="670" 
d="M584 26h67v-183h-26v157h-580v-157h-26v183h67l230 682h37zM113 26h445l-224 658z" />
    <glyph glyph-name="uni0436.loclBGR" horiz-adv-x="863" 
d="M542 372l292 -372h-34l-276 352l-80 -89v-263h-25v263l-80 89l-276 -352h-34l292 372l-303 336l38 -1l363 -408v409h25v-409l363 408l38 1z" />
    <glyph glyph-name="uni0438.loclBGR" horiz-adv-x="687" 
d="M594 0h-25v623l1 53h-1l-36 -54l-401 -622h-39v708h25v-615l-1 -69h1l43 66l399 618h34v-708z" />
    <glyph glyph-name="uni0439.loclBGR" horiz-adv-x="687" 
d="M469 921h25q-9 -58 -48.5 -94.5t-100.5 -36.5t-100.5 36.5t-48.5 94.5h25q23 -106 124 -106t124 106zM594 0h-25v624l1 52h-1l-34 -52l-403 -624h-39v708h25v-597l-1 -87h1l52 80l389 604h35v-708z" />
    <glyph glyph-name="uni043A.loclBGR" horiz-adv-x="591" 
d="M118 708v-430l419 430h32l-327 -341l327 -367h-29l-316 349l-106 -106v-243h-25v708h25z" />
    <glyph glyph-name="uni043B.loclBGR" horiz-adv-x="588" 
d="M569 0h-28l-194 553l-52 142h-5l-51 -146l-193 -549h-27l251 708h47z" />
    <glyph glyph-name="uni043F.loclBGR" horiz-adv-x="675" 
d="M118 683v-683h-25v708h489v-708h-25v683h-439z" />
    <glyph glyph-name="uni0442.loclBGR" horiz-adv-x="541" 
d="M519 708v-25h-236v-683h-25v683h-236v25h497z" />
    <glyph glyph-name="uni0446.loclBGR" horiz-adv-x="679" 
d="M574 26h67v-183h-26v157h-523v708h25v-682h431v682h26v-682z" />
    <glyph glyph-name="uni0448.loclBGR" horiz-adv-x="881" 
d="M788 0h-695v708h25v-683h310v683h25v-683h310v683h25v-708z" />
    <glyph glyph-name="uni0449.loclBGR" horiz-adv-x="892" 
d="M787 26h66v-183h-25v157h-737v708h25v-682h310v682h25v-682h310v682h26v-682z" />
    <glyph glyph-name="uni044E.loclBGR" horiz-adv-x="919" 
d="M582 718q69 0 127.5 -20.5t97.5 -67.5t39 -112v-326q0 -96 -78 -148.5t-186 -52.5t-185.5 52.5t-77.5 148.5v152h-203v-344h-25v708h25v-339h203v149q0 96 77.5 148t185.5 52zM581 694q-98 -1 -167.5 -45.5t-69.5 -130.5v-326q0 -84 70.5 -130t167.5 -46t168 46.5
t71 129.5v326q0 87 -70.5 131.5t-169.5 44.5z" />
    </font>
</defs>
</svg>
